<?xml version="1.0" encoding="utf-8"?>
<!-- Generator: Adobe Illustrator 23.0.1, SVG Export Plug-In . SVG Version: 6.00 Build 0)  -->
<svg version="1.1" id="图层_1" xmlns="http://www.w3.org/2000/svg" xmlns:xlink="http://www.w3.org/1999/xlink" x="0px" y="0px"
	 viewBox="0 0 24 24" style="enable-background:new 0 0 24 24;" xml:space="preserve">
<style type="text/css">
	.st0{fill-rule:evenodd;clip-rule:evenodd;}
</style>
<title>ic_assets_line</title>
<desc>Created with Sketch.</desc>
<g id="Shape" transform="translate(0.000000, 2.000000)">
	<path id="Combined-Shape" class="st0" d="M10,20C4.5,20,0,15.5,0,10S4.5,0,10,0s10,4.5,10,10S15.5,20,10,20z M10,19c5,0,9-4,9-9
		s-4-9-9-9s-9,4-9,9S5,19,10,19z"/>
	<path class="st0" d="M10,14c-2.2,0-4-1.8-4-4s1.8-4,4-4s4,1.8,4,4S12.2,14,10,14z M10,13c1.7,0,3-1.3,3-3s-1.3-3-3-3s-3,1.3-3,3
		S8.3,13,10,13z"/>
	<path class="st0" d="M16.5,1.1C20.8,1.8,24,5.5,24,10s-3.2,8.2-7.5,8.9c0.6-0.5,1.2-1,1.7-1.5C21,16.1,23,13.3,23,10
		s-2-6.1-4.8-7.3C17.7,2.1,17.1,1.6,16.5,1.1z"/>
</g>
</svg>
