<?xml version="1.0" encoding="utf-8"?>
<!-- Generator: Adobe Illustrator 23.0.1, SVG Export Plug-In . SVG Version: 6.00 Build 0)  -->
<svg version="1.1" id="图层_1" xmlns="http://www.w3.org/2000/svg" xmlns:xlink="http://www.w3.org/1999/xlink" x="0px" y="0px"
	 viewBox="0 0 72 72" style="enable-background:new 0 0 72 72;" xml:space="preserve">
<style type="text/css">
	.st0{fill:#ECBA6F;}
</style>
<title>ic_burn_big</title>
<desc>Created with Sketch.</desc>
<g id="Export">
	<g id="ic_burn_big" transform="translate(-74.000000, -212.000000)">
		<g transform="translate(74.000000, 212.000000)">
			<path class="st0" d="M36,70.8c19.2,0,34.8-15.6,34.8-34.8S55.2,1.2,36,1.2S1.2,16.8,1.2,36S16.8,70.8,36,70.8z M36,72
				C16.1,72,0,55.9,0,36S16.1,0,36,0s36,16.1,36,36S55.9,72,36,72z M43.4,32.2c0.1,1.2-1.4,1.9-2.1,0.9c-3.3-4.1-3.9-7.6-4-17.2
				c-3.9,2.1-6,5.4-6.9,9.9c-0.5,2.5-0.6,4.8-0.5,8.6c0.1,2,0.1,2.5,0,3.2c-0.1,1-1.3,1.5-2,0.8c-1.2-1.1-2.1-2.6-2.8-4.5
				c-0.4-1.1-0.7-2.2-0.9-3.4c-1.7,1.9-2.8,5.1-2.8,8.2c0,8.8,6.6,15.8,14.8,15.8s14.8-7.1,14.8-15.8c0-1.7-0.3-3-1.1-5
				c-0.1-0.2-0.2-0.5-0.3-0.8c0,0-0.3-0.7-0.4-0.8c-1.2-2.8-1.8-4.9-1.9-7.4C44.2,26.4,43,29.2,43.4,32.2z M41.9,32.1
				c0.1,0.1,0.1,0.2,0.2,0.3c0-0.1,0-0.2,0-0.4c0-0.7,0-1.2,0-1.7c0.3-2.7,1.8-5.9,6-7.2c0,7.6,3.8,10.2,3.8,15.8
				C52,48.4,44.8,56,36,56s-16-7.6-16-17.1c0-3.9,1.6-8.7,4.9-10.5c0,0,0.4,4.8,2.5,7.8c0.2,0.4,0.5,0.7,0.7,0.9
				c0.1,0.1,0.3,0.3,0.4,0.4c0-0.2,0-0.4,0-0.6c0-0.5,0-0.9,0-1.1c-0.1-5.6-1.2-17.4,9.8-21.9c0,7-0.1,12.1,2.4,16.5
				C41.2,31.1,41.5,31.6,41.9,32.1z"/>
		</g>
	</g>
</g>
</svg>
