<?xml version="1.0" encoding="utf-8"?>
<!-- Generator: Adobe Illustrator 23.0.1, SVG Export Plug-In . SVG Version: 6.00 Build 0)  -->
<svg version="1.1" id="图层_1" xmlns="http://www.w3.org/2000/svg" xmlns:xlink="http://www.w3.org/1999/xlink" x="0px" y="0px"
	 viewBox="0 0 16 16" style="enable-background:new 0 0 16 16;" xml:space="preserve">
<style type="text/css">
	.st0{fill-rule:evenodd;clip-rule:evenodd;fill:#FFFFFF;fill-opacity:0;}
	.st1{fill-rule:evenodd;clip-rule:evenodd;fill:#AEAEAE;}
	.st2{fill:none;}
</style>
<title>ic_export</title>
<desc>Created with Sketch.</desc>
<rect id="Guide" y="0" class="st0" width="16" height="16"/>
<path id="Fill-1" class="st1" d="M2.5,1h11C14.3,1,15,1.7,15,2.5v2C15,4.8,14.8,5,14.5,5S14,4.8,14,4.5v-2C14,2.2,13.8,2,13.5,2h-11
	C2.2,2,2,2.2,2,2.5v11C2,13.8,2.2,14,2.5,14h11c0.3,0,0.5-0.2,0.5-0.5v-2c0-0.3,0.2-0.5,0.5-0.5s0.5,0.2,0.5,0.5v2
	c0,0.8-0.7,1.5-1.5,1.5h-11C1.7,15,1,14.3,1,13.5v-11C1,1.7,1.7,1,2.5,1 M5,8c0-0.3,0.2-0.5,0.5-0.5h7.8l-1.6-1.6
	c-0.2-0.2-0.2-0.5,0-0.7c0.2-0.2,0.5-0.2,0.7,0l2.5,2.5c0,0,0.1,0.1,0.1,0.2C15,7.9,15,8.1,15,8.2c0,0.1-0.1,0.1-0.1,0.2l-2.5,2.5
	C12.3,11,12.1,11,12,11s-0.3,0-0.4-0.1c-0.2-0.2-0.2-0.5,0-0.7l1.6-1.6H5.5C5.2,8.5,5,8.3,5,8"/>
<rect id="Overlay" y="0" class="st2" width="16" height="16"/>
</svg>
