<?xml version="1.0" encoding="utf-8"?>
<!-- Generator: Adobe Illustrator 23.0.1, SVG Export Plug-In . SVG Version: 6.00 Build 0)  -->
<svg version="1.1" id="图层_1" xmlns="http://www.w3.org/2000/svg" xmlns:xlink="http://www.w3.org/1999/xlink" x="0px" y="0px"
	 viewBox="0 0 16 16" style="enable-background:new 0 0 16 16;" xml:space="preserve">
<style type="text/css">
	.st0{fill-rule:evenodd;clip-rule:evenodd;fill:#AEAEAE;}
	.st1{fill:none;}
</style>
<title>ic_filter</title>
<desc>Created with Sketch.</desc>
<path id="Fill-1" class="st0" d="M2.6,2l4.3,5.2C7,7.3,7,7.4,7,7.5v6.3l2-0.7V7.5c0-0.1,0-0.2,0.1-0.3L13.4,2H2.6z M6.5,15
	c-0.1,0-0.2,0-0.3-0.1C6.1,14.8,6,14.7,6,14.5V7.7L1.1,1.8C1,1.7,1,1.5,1,1.3C1.1,1.1,1.3,1,1.5,1h13c0.2,0,0.4,0.1,0.5,0.3
	C15,1.5,15,1.7,14.9,1.8L10,7.7v5.8c0,0.2-0.1,0.4-0.3,0.5l-3,1C6.6,15,6.6,15,6.5,15z"/>
<rect id="Overlay" y="0" class="st1" width="16" height="16"/>
</svg>
