<?xml version="1.0" encoding="utf-8"?>
<!-- Generator: Adobe Illustrator 23.0.1, SVG Export Plug-In . SVG Version: 6.00 Build 0)  -->
<svg version="1.1" id="图层_1" xmlns="http://www.w3.org/2000/svg" xmlns:xlink="http://www.w3.org/1999/xlink" x="0px" y="0px"
	 viewBox="0 0 20 20" style="enable-background:new 0 0 20 20;" xml:space="preserve">
<style type="text/css">
	.st0{fill-rule:evenodd;clip-rule:evenodd;fill:#D8D8D8;fill-opacity:0;}
	.st1{fill:#AEAEAE;}
	.st2{fill-rule:evenodd;clip-rule:evenodd;fill:#AEAEAE;}
	.st3{fill:none;}
</style>
<title>ic_help</title>
<desc>Created with Sketch.</desc>
<rect id="Gudie" y="0" class="st0" width="20" height="20"/>
<g id="Shape">
	<path id="Combined-Shape" class="st1" d="M10,0c2.7,0,5.2,1.1,7.1,2.9S20,7.3,20,10c0,5.5-4.5,10-10,10S0,15.5,0,10S4.5,0,10,0z
		 M10,1c-5,0-9,4-9,9s4,9,9,9s9-4,9-9c0-2.4-0.9-4.7-2.6-6.4S12.4,1,10,1z"/>
	<path id="Fill-1" class="st2" d="M10,13.5c-0.3,0-0.5-0.2-0.5-0.5v-2c0-0.2,0.1-0.4,0.3-0.5c0.7-0.2,2.7-1.2,2.7-2.5
		c0-1.2-0.9-2.3-2.2-2.5C9.1,5.3,7.9,6.1,7.5,7.2C7.4,7.5,7.1,7.6,6.8,7.5C6.6,7.4,6.4,7.1,6.5,6.9c0.6-1.6,2.3-2.6,4-2.3
		c1.7,0.3,3,1.8,3,3.5c0,1.9-2.1,3-3,3.3V13C10.5,13.3,10.3,13.5,10,13.5"/>
	<circle id="Oval-4" class="st2" cx="10" cy="15.7" r="1"/>
</g>
<rect id="Overlay" y="0" class="st3" width="20" height="20"/>
</svg>
