<?xml version="1.0" encoding="utf-8"?>
<!-- Generator: Adobe Illustrator 23.0.1, SVG Export Plug-In . SVG Version: 6.00 Build 0)  -->
<svg version="1.1" id="图层_1" xmlns="http://www.w3.org/2000/svg" xmlns:xlink="http://www.w3.org/1999/xlink" x="0px" y="0px"
	 viewBox="0 0 188 152" style="enable-background:new 0 0 188 152;" xml:space="preserve">
<style type="text/css">
	.st0{fill-rule:evenodd;clip-rule:evenodd;fill:#F2EBE2;}
	.st1{fill-rule:evenodd;clip-rule:evenodd;fill:url(#Path_1_);}
	.st2{fill-rule:evenodd;clip-rule:evenodd;fill:url(#SVGID_1_);}
	.st3{fill-rule:evenodd;clip-rule:evenodd;fill:#FFFFFF;}
	.st4{fill-rule:evenodd;clip-rule:evenodd;fill:url(#SVGID_2_);}
	.st5{fill-rule:evenodd;clip-rule:evenodd;fill:#F4EEE9;}
	.st6{fill-rule:evenodd;clip-rule:evenodd;fill:#DDD8D3;}
	.st7{fill-rule:evenodd;clip-rule:evenodd;fill:#D6C9C4;}
	.st8{fill-rule:evenodd;clip-rule:evenodd;fill:url(#Path-5_1_);}
	.st9{fill-rule:evenodd;clip-rule:evenodd;fill:url(#SVGID_3_);}
	.st10{fill-rule:evenodd;clip-rule:evenodd;fill:url(#SVGID_4_);}
	.st11{fill-rule:evenodd;clip-rule:evenodd;fill:url(#SVGID_5_);}
	.st12{fill-rule:evenodd;clip-rule:evenodd;fill:url(#SVGID_6_);}
	.st13{fill-rule:evenodd;clip-rule:evenodd;fill:url(#SVGID_7_);}
	.st14{fill-rule:evenodd;clip-rule:evenodd;fill:#FFF8F5;}
	.st15{fill-rule:evenodd;clip-rule:evenodd;fill:url(#Path-2_1_);}
	.st16{fill-rule:evenodd;clip-rule:evenodd;fill:url(#SVGID_8_);}
	.st17{fill-rule:evenodd;clip-rule:evenodd;fill:url(#SVGID_9_);}
	.st18{fill-rule:evenodd;clip-rule:evenodd;fill:#292931;}
	.st19{fill-rule:evenodd;clip-rule:evenodd;fill:#F7D4B2;}
	.st20{fill-rule:evenodd;clip-rule:evenodd;fill:#FFE1CC;}
	.st21{fill-rule:evenodd;clip-rule:evenodd;fill:url(#SVGID_10_);}
	.st22{fill-rule:evenodd;clip-rule:evenodd;fill:url(#SVGID_11_);}
	.st23{fill-rule:evenodd;clip-rule:evenodd;fill:#FFD6A1;}
	.st24{fill-rule:evenodd;clip-rule:evenodd;fill:url(#SVGID_12_);}
	.st25{fill-rule:evenodd;clip-rule:evenodd;fill:url(#SVGID_13_);}
	.st26{fill-rule:evenodd;clip-rule:evenodd;fill:url(#SVGID_14_);}
	.st27{fill-rule:evenodd;clip-rule:evenodd;fill:url(#SVGID_15_);}
	.st28{fill-rule:evenodd;clip-rule:evenodd;fill:url(#SVGID_16_);}
	.st29{fill-rule:evenodd;clip-rule:evenodd;fill:url(#SVGID_17_);}
	.st30{fill-rule:evenodd;clip-rule:evenodd;fill:url(#SVGID_18_);}
	.st31{fill-rule:evenodd;clip-rule:evenodd;fill:url(#SVGID_19_);}
	.st32{fill:url(#SVGID_20_);}
</style>
<title>ic_illustration_wallet</title>
<desc>Created with Sketch.</desc>
<path id="Shadow" class="st0" d="M8.2,99.1l50.1-28.9c5.5-2.9,11.6-4.3,17.7-4.1h37.3c6.1-0.2,12.2,1.1,17.7,4l50,29
	c9.5,5.5,9.5,14.4,0,20l-50.1,28.9c-5.4,2.9-11.6,4.3-17.7,4.1H75.8c-6.2,0.2-12.3-1.2-17.7-4.1L8.1,119.1
	C-1.4,113.5-1.4,104.6,8.2,99.1z"/>
<linearGradient id="Path_1_" gradientUnits="userSpaceOnUse" x1="-201.6376" y1="492.796" x2="-200.6376" y2="492.796" gradientTransform="matrix(149 0 0 -96 30045 47412.418)">
	<stop  offset="0" style="stop-color:#E5DCD8"/>
	<stop  offset="0.1958" style="stop-color:#F9E6DE"/>
	<stop  offset="0.5013" style="stop-color:#E5D8D3"/>
	<stop  offset="0.7518" style="stop-color:#F2E8E4"/>
	<stop  offset="0.9987" style="stop-color:#DDD3CE"/>
</linearGradient>
<path id="Path" class="st1" d="M150,99.1c0-3.6-2.3-7.2-7.1-10l-50-29c-9.5-5.5-25-5.5-34.5,0l-50.1,29C3.3,91.9,1,95.5,1,99.2v9.7
	c0,3.7,2.3,7.3,7.1,10.2l50,28.8c9.5,5.5,25,5.5,34.5,0l50-29c4.8-2.8,7.1-6.3,7.2-10L150,99.1z"/>
<linearGradient id="SVGID_1_" gradientUnits="userSpaceOnUse" x1="1" y1="130" x2="150.0011" y2="130">
	<stop  offset="0" style="stop-color:#DBD1CC"/>
	<stop  offset="0.2155" style="stop-color:#F2E4DD"/>
	<stop  offset="0.4312" style="stop-color:#F7E8E2"/>
	<stop  offset="0.517" style="stop-color:#D8CAC3"/>
	<stop  offset="0.7627" style="stop-color:#F4E6DF"/>
	<stop  offset="1" style="stop-color:#D3C5BE"/>
</linearGradient>
<path class="st2" d="M8.1,118.2l50.1,28.6c9.5,5.5,25,5.4,34.6,0l50.1-28.7c4.9-2.8,7.2-6.4,7.2-10.1l0,1.1c0,3.6-2.3,7.3-7.2,10.1
	l-50.1,28.7c-9.5,5.5-25,5.5-34.6,0L8.1,119.3c-4.8-2.8-7.1-6.5-7.1-10.1v-1.1C1,111.7,3.3,115.4,8.1,118.2z"/>
<path class="st3" d="M8.1,108.8l50.1,28.9c9.5,5.5,25,5.5,34.6,0l50.1-29c4.9-2.8,7.2-6.5,7.2-10.2l0,1.2c0,3.7-2.3,7.4-7.2,10.2
	L92.9,139c-9.6,5.5-25.1,5.5-34.6,0L8.1,110C3.3,107.2,1,103.5,1,99.9v-1.2C1,102.4,3.3,106.1,8.1,108.8z"/>
<linearGradient id="SVGID_2_" gradientUnits="userSpaceOnUse" x1="1" y1="125.2962" x2="150.1858" y2="125.2962">
	<stop  offset="0" style="stop-color:#DBD1CC"/>
	<stop  offset="0.2155" style="stop-color:#F2E4DD"/>
	<stop  offset="0.4312" style="stop-color:#F7E8E2"/>
	<stop  offset="0.517" style="stop-color:#D8CAC3"/>
	<stop  offset="0.7627" style="stop-color:#F4E6DF"/>
	<stop  offset="1" style="stop-color:#D3C5BE"/>
</linearGradient>
<path class="st4" d="M143,113.4l-50.1,29c-9.6,5.5-25.1,5.5-34.6,0L8.1,113.5C3.3,110.7,1,107,1,103.3v0.8c0,3.7,2.3,7.3,7.1,10.1
	l50.1,28.9c9.5,5.5,25,5.5,34.6,0l50.1-29c4.9-2.8,7.2-6.5,7.2-10.2v-0.8C150.3,107,147.9,110.6,143,113.4z"/>
<path class="st3" d="M8.1,114.3l50.1,28.9c9.5,5.5,25,5.5,34.6,0l50.1-29c4.9-2.8,7.2-6.5,7.2-10.2l0,1.2c0,3.7-2.3,7.4-7.2,10.2
	l-50.1,29c-9.6,5.5-25.1,5.5-34.6,0L8.1,115.5C3.3,112.7,1,109,1,105.3v-1.2C1,107.8,3.3,111.5,8.1,114.3z"/>
<path class="st5" d="M8.1,109c-9.5-5.5-9.5-14.4,0-20l50.2-29c9.6-5.5,25.1-5.5,34.6,0l50.1,28.9c9.6,5.5,9.5,14.5,0,20l-50.3,29
	c-9.6,5.5-25.1,5.5-34.6,0L8.1,109z"/>
<path class="st6" d="M143.1,88.9L93,59.9c-1-0.6-2.1-1.1-3.2-1.5h-3.5l29.1,56.9H132l11-6.4C152.7,103.3,152.7,94.4,143.1,88.9z"/>
<path id="Path-4" class="st7" d="M139,41v59.5c0,1.1-0.9,2-2,2c-0.4,0-0.7-0.1-1-0.3L56,56V16.5c0-5.1,3.2-9.7,8-11.5l0,0
	c5.1-1.9,10.7-1.4,15.4,1.3L139,41z"/>
<g id="Group-3" transform="translate(8.000000, 0.000000)">
	
		<linearGradient id="Path-5_1_" gradientUnits="userSpaceOnUse" x1="-206.5882" y1="492.2971" x2="-207.5882" y2="492.2971" gradientTransform="matrix(59.5 0 0 -84.2963 12417.5 41556.668)">
		<stop  offset="0" style="stop-color:#292931"/>
		<stop  offset="1" style="stop-color:#ECBA6F"/>
	</linearGradient>
	<path id="Path-5" class="st8" d="M76.3,16.5L84,21l36.5,21.1c3.1,1.8,5,5.1,5,8.7c0,14.1,0,28.2,0,42.2c0,4.1-4.6,7-7.5,7
		c1.3-0.7,2.6-2.7,4-6V52.8c0-3.6-1.9-6.9-5.1-8.7L71,18l-5,3l2.7-3.2C70.6,15.6,73.8,15.1,76.3,16.5z"/>
	
		<linearGradient id="SVGID_3_" gradientUnits="userSpaceOnUse" x1="-207.3102" y1="492.3612" x2="-206.2826" y2="491.965" gradientTransform="matrix(56 0 0 -82.2146 11679 40524.4688)">
		<stop  offset="0" style="stop-color:#292931"/>
		<stop  offset="1" style="stop-color:#ECBA6F"/>
	</linearGradient>
	<path class="st9" d="M122,52.8v43.3c0,2.2-1.8,4-4,4c-0.7,0-1.4-0.2-2-0.5L66,71V21.9c0-2.2,1.8-4,4-4c0.7,0,1.4,0.2,2,0.5l45,25.7
		C120.1,45.9,122,49.2,122,52.8z"/>
</g>
<linearGradient id="SVGID_4_" gradientUnits="userSpaceOnUse" x1="-198.5882" y1="492.2971" x2="-199.5882" y2="492.2971" gradientTransform="matrix(59.5 0 0 -84.2963 11945.5 41559.168)">
	<stop  offset="0" style="stop-color:#292931"/>
	<stop  offset="1" style="stop-color:#ECBA6F"/>
</linearGradient>
<path class="st10" d="M80.3,19l7.7,4.5l36.5,21.1c3.1,1.8,5,5.1,5,8.7c0,14.1,0,28.2,0,42.2c0,4.1-4.6,7-7.5,7c1.3-0.7,2.6-2.7,4-6
	V55.3c0-3.6-1.9-6.9-5.1-8.7L75,20.5l-5,3l2.7-3.2C74.6,18.1,77.8,17.6,80.3,19z"/>
<linearGradient id="SVGID_5_" gradientUnits="userSpaceOnUse" x1="-199.3102" y1="492.3612" x2="-198.2826" y2="491.965" gradientTransform="matrix(56 0 0 -82.2146 11235 40526.9688)">
	<stop  offset="0" style="stop-color:#292931"/>
	<stop  offset="1" style="stop-color:#ECBA6F"/>
</linearGradient>
<path class="st11" d="M126,55.3v43.3c0,2.2-1.8,4-4,4c-0.7,0-1.4-0.2-2-0.5L70,73.5V24.4c0-2.2,1.8-4,4-4c0.7,0,1.4,0.2,2,0.5
	l45,25.7C124.1,48.4,126,51.7,126,55.3z"/>
<linearGradient id="SVGID_6_" gradientUnits="userSpaceOnUse" x1="-198.5882" y1="492.2971" x2="-199.5882" y2="492.2971" gradientTransform="matrix(59.5 0 0 -84.2963 11941.5 41561.668)">
	<stop  offset="0" style="stop-color:#292931"/>
	<stop  offset="1" style="stop-color:#ECBA6F"/>
</linearGradient>
<path class="st12" d="M76.3,21.5L84,26l36.5,21.1c3.1,1.8,5,5.1,5,8.7c0,14.1,0,28.2,0,42.2c0,4.1-4.6,7-7.5,7c1.3-0.7,2.6-2.7,4-6
	V57.8c0-3.6-1.9-6.9-5.1-8.7L71,23l-5,3l2.7-3.2C70.6,20.6,73.8,20.1,76.3,21.5z"/>
<linearGradient id="SVGID_7_" gradientUnits="userSpaceOnUse" x1="-199.3102" y1="492.3612" x2="-198.2826" y2="491.965" gradientTransform="matrix(56 0 0 -82.2146 11231 40529.4688)">
	<stop  offset="0" style="stop-color:#7726DD"/>
	<stop  offset="1" style="stop-color:#17B5E2"/>
</linearGradient>
<path class="st13" d="M122,57.8v43.3c0,2.2-1.8,4-4,4c-0.7,0-1.4-0.2-2-0.5L66,76V26.9c0-2.2,1.8-4,4-4c0.7,0,1.4,0.2,2,0.5l45,25.7
	C120.1,50.9,122,54.2,122,57.8z"/>
<path class="st14" d="M117,54v59.5c0,1.1-0.9,2-2,2c-0.4,0-0.7-0.1-1-0.3L53,79V13.3c0-2.7,1-5.4,2.9-7.4l-0.3,8.6
	c-0.1,2.2,1.1,4.3,3,5.4L117,54z"/>
<linearGradient id="Path-2_1_" gradientUnits="userSpaceOnUse" x1="53.0066" y1="57.7842" x2="144" y2="57.7842">
	<stop  offset="0" style="stop-color:#FCF1E0"/>
	<stop  offset="0.1958" style="stop-color:#F4E8D3"/>
	<stop  offset="0.5444" style="stop-color:#FFF0E9"/>
	<stop  offset="0.9987" style="stop-color:#E8DCD6"/>
</linearGradient>
<path id="Path-2" class="st15" d="M57.5,4L57.5,4c8.3-4.9,18.7-5,27.1-0.2l57.4,33c1.2,0.7,2,2,2,3.5c0,19.2,0,38.5,0,57.7
	c0,2-2.2,3.5-6.6,4.5c1.1-0.4,1.6-1,1.6-2c0-19.1,0-38.1,0-57.2l0,0c0-1.4-0.8-2.7-2-3.5L81.3,7.4C75.5,4,68.4,3.9,62.5,7l0,0
	c-2.9,1.5-4,5-2.5,7.9c0.5,1,1.3,1.8,2.3,2.4L120,49.9c1.3,0.7,2,2,2,3.5c0,19.1,0,38.1,0,57.2c0,1.9-2.1,3.5-6.2,4.8
	c0.8-0.5,1.2-1.1,1.2-1.8c0-19.1,0-38.1,0-57.2l0,0c0-1.4-0.8-2.8-2-3.5l-57.4-33c-4.4-2.5-5.9-8.1-3.4-12.5C55,5.9,56.1,4.8,57.5,4
	z"/>
<linearGradient id="SVGID_8_" gradientUnits="userSpaceOnUse" x1="89" y1="77.01" x2="110.05" y2="77.01">
	<stop  offset="0" style="stop-color:#F7EDE8"/>
	<stop  offset="1" style="stop-color:#F2EAE7"/>
</linearGradient>
<path class="st16" d="M89,72.1c0.1,3.3,1.1,6.5,2.8,9.4c1.6,2.9,3.9,5.4,6.8,7.1c2.9,1.7,5.8,1.9,8,0.6c2.2-1.3,3.5-3.9,3.5-7.2
	c-0.1-3.3-1.1-6.5-2.8-9.4c-1.6-2.9-3.9-5.4-6.8-7.1c-2.9-1.7-5.8-1.9-8-0.6C90.3,66.2,89,68.7,89,72.1z"/>
<linearGradient id="SVGID_9_" gradientUnits="userSpaceOnUse" x1="-189.9961" y1="478.9809" x2="-188.9961" y2="478.148" gradientTransform="matrix(15.66 0 0 -19.3919 3067.98 9357.6553)">
	<stop  offset="0" style="stop-color:#292931"/>
	<stop  offset="0.9363" style="stop-color:#ECBA6F"/>
</linearGradient>
<path class="st17" d="M92,73c0.1,2.5,0.8,4.9,2.1,7c1.2,2.2,2.9,4,5,5.3c2.2,1.3,4.3,1.4,6,0.4c1.7-1,2.6-2.9,2.6-5.4
	c-0.1-2.5-0.8-4.9-2.1-7c-1.2-2.2-2.9-4-5-5.3c-2.2-1.3-4.3-1.4-6-0.4C92.9,68.6,92,70.5,92,73z"/>
<path class="st18" d="M52.4,103.9c-1-0.2-2.1-0.1-3.1,0.4c-4.7,1-6.7,2.3-6.6,3.8c0,0.2,0.1,0.4,0.1,0.5c0,0.2,0,0.4,0.1,0.6
	c0,0.3,0.1,0.7,0.4,0.9c0.2,0.2,0.6,0.4,0.9,0.3c1.7-0.3,3.4-1,4.8-2c2.7-1.5,3.3-1.9,4-3S52.4,103.9,52.4,103.9z"/>
<path class="st19" d="M49.3,104.3c-1.6,0.3-3.3,0.7-4.8,1.3c0-5.2,1.6-17.7,1.7-19.7c0,0-3.6-1.7-5-0.3c-3.3,10.7,1.4,21.7,1.4,21.7
	s0,0.1,0,0.2c0,0.8,1,0.7,1.7,0.5c1.3-0.2,2.5-0.7,3.6-1.3c1.2-0.7,2-1.1,2.1-1.9C50.1,104.6,49.8,104.4,49.3,104.3z"/>
<path class="st18" d="M59,109c-1-0.6-2.2-0.8-3.3-0.7h-0.1c-5.2-0.7-7.8,0-8.2,1.6c0,0.2,0,0.4,0,0.6c0,0.2,0,0.3,0,0.5
	c0,0.7,0,1.6,0.8,1.9c1.8,0.4,3.6,0.4,5.4,0c2-0.1,3.9-0.8,5.5-2C60.3,109.9,59,109,59,109z"/>
<path class="st20" d="M55.6,108.4L55.6,108.4c-2-0.3-4-0.4-5.9-0.3c0.2-7.5,0.8-15.1,2-22.5c0,0-4.4-0.4-5.9,1
	c-2.7,9.2,1,20.3,1.8,22.6c0,0.1,0,0.2,0,0.2c-0.2,0.9,0.8,0.9,1.6,1.1c1.4,0.2,2.8,0.2,4.2-0.2c1.8-0.4,2.5-0.4,2.8-1.1
	C56.3,109,56,108.6,55.6,108.4z"/>
<path class="st20" d="M70.8,46.4l0.6-0.5c-0.3-0.4-0.4-0.9-0.2-1.3c0.1-0.6,0.4-1.2,0.9-1.6c0.4-0.3,0.9-0.5,1.4-0.6
	c0.3,0,0.1,0.9-0.5,1.1c-0.6,0.2-0.5,0.5-0.6,0.9c0.3,0,0.3-0.1,0.8-0.6c0.4-0.4,1.5-1.2,1.9-1.5c0.4-0.3,0.8-0.6,1.2-0.8
	c0.3,0.1,0,0.6,0,0.7c0,0.1-0.7,0.5-0.8,0.7c-0.3,0.5-0.8,0.9-1.2,1.2c0.7-0.4,1.4-0.9,2-1.5c0.4-0.3,0.8-0.8,1.1-0.8s0,0.8-0.2,0.9
	c-0.6,0.5-1.2,1.1-1.8,1.7c0.2-0.6,0.7-1.1,1.2-1.3c0.2,0,0.3,0.2,0.3,0.8c0,0.6-0.6,1.2-1.7,2.1C75,46.2,74.1,47,73.7,47
	c-0.5,0.4-1,0.8-1.4,1.2L70.8,46.4z"/>
<linearGradient id="SVGID_10_" gradientUnits="userSpaceOnUse" x1="36.7553" y1="73.7022" x2="53.922" y2="73.7022">
	<stop  offset="3.720238e-04" style="stop-color:#9B9B9B"/>
	<stop  offset="1" style="stop-color:#14110B"/>
</linearGradient>
<path class="st21" d="M38.7,59.7c-0.6,3.6-3.4,6.2-1,13.3c1.4,4,2.5,8.2,3.1,12.4c0.4,2,10.2,3.5,10.8,0.8c0.8-3.5,2.6-12.1,2.2-16
	c-0.1-3.2-1-6.3-2.7-8.9C49.6,59.4,38.7,59.7,38.7,59.7z"/>
<path class="st19" d="M38.2,36c-5.8,1.6-2.6,11.7-0.1,18.2C43.2,54.4,38.2,36,38.2,36z"/>
<path class="st20" d="M50.7,25.3c0.3-2.9-1.3-2.7-1.3-2.7l-9.6,5l2.9,3.8c0,0,0,0.1,0,0.1c-0.5,2.1-0.8,5.2-0.8,5.2l5.9,0.8v-4
	c1.4,0,2.6,0,3-1.4C51.4,29.9,51.4,27.5,50.7,25.3z"/>
<linearGradient id="SVGID_11_" gradientUnits="userSpaceOnUse" x1="41.9478" y1="55.2154" x2="54.8053" y2="36.399">
	<stop  offset="0" style="stop-color:#F79F2B"/>
	<stop  offset="0.9614" style="stop-color:#FFC145"/>
</linearGradient>
<path class="st22" d="M48.7,37.9c0,0,4.6,2,5.7,3.7c-1,1.3-0.6,8-2.7,13.7c0.3,2.9,0.9,5.8,1.6,8.6c-0.2,2-5.3,2.9-9.6,2
	c-0.4,0-0.8-3.1-1.1-3.2c-0.4-0.1-1.1,2.4-1.5,2.3c-1.9-0.8-4-1.6-3.6-3.6c2-8-4.1-20.2-0.3-24.8c1.2-1.4,5.2,0,5.2,0L48.7,37.9z"/>
<path class="st23" d="M54.4,41.6c0,0,3,7.3,6.2,8.5c3.9,1.4,8.8-3.4,10.2-4c1.1,0.6,1.9,2.2,1.4,2.9c-2.8,4-7.5,6.2-12.3,6
	c-2.8-0.3-7.6-3.5-8.2-6C51.3,47,51.9,40.4,54.4,41.6z"/>
<path class="st18" d="M49.8,20.1c2.6,1.4,2,3.4-0.6,5.2c-3,2.1-3.9,6.2-1.9,9.3c2,3.4,3.3,5.6,1.9,6.8s-6.6,1.4-9.3-3.3
	s-7-14-1.2-15.8C40.3,19,46.1,18,49.8,20.1z"/>
<g>
	<linearGradient id="SVGID_12_" gradientUnits="userSpaceOnUse" x1="103.601" y1="118.4209" x2="66.6471" y2="118.4209">
		<stop  offset="0" style="stop-color:#FFB216"/>
		<stop  offset="1" style="stop-color:#FFE18E"/>
	</linearGradient>
	<path class="st24" d="M103.6,118.4c0,6.4-8.3,11.6-18.5,11.6s-18.5-5.2-18.5-11.6c0-0.7,0-3.4,0-4c0-5.7,9.4-7.6,18.5-7.6
		c9.1,0,18.4,2.5,18.4,8.2C103.6,115.8,103.6,117.7,103.6,118.4z"/>
	<linearGradient id="SVGID_13_" gradientUnits="userSpaceOnUse" x1="66.6471" y1="114.4209" x2="103.601" y2="114.4209">
		<stop  offset="0" style="stop-color:#FEE7B3"/>
		<stop  offset="1" style="stop-color:#FFCC35"/>
	</linearGradient>
	<path class="st25" d="M103.6,114.4c0,6.4-8.3,11.6-18.5,11.6s-18.5-5.2-18.5-11.6c0-0.7,0-3.4,0-4c0-5.7,9.4-7.6,18.5-7.6
		c9.1,0,18.4,2.5,18.4,8.2C103.6,111.8,103.6,113.7,103.6,114.4z"/>
	<linearGradient id="SVGID_14_" gradientUnits="userSpaceOnUse" x1="103.601" y1="112.4209" x2="66.6471" y2="112.4209">
		<stop  offset="0" style="stop-color:#FFB216"/>
		<stop  offset="1" style="stop-color:#FFE18E"/>
	</linearGradient>
	<path class="st26" d="M103.6,112.4c0,6.4-8.3,11.6-18.5,11.6s-18.5-5.2-18.5-11.6c0-0.7,0-3.4,0-4c0-5.7,9.4-7.6,18.5-7.6
		c9.1,0,18.4,2.5,18.4,8.2C103.6,109.8,103.6,111.7,103.6,112.4z"/>
	<linearGradient id="SVGID_15_" gradientUnits="userSpaceOnUse" x1="66.6471" y1="108.4209" x2="103.601" y2="108.4209">
		<stop  offset="0" style="stop-color:#FEE7B3"/>
		<stop  offset="1" style="stop-color:#FFCC35"/>
	</linearGradient>
	<ellipse class="st27" cx="85.1" cy="108.4" rx="18.5" ry="11.6"/>
	<linearGradient id="SVGID_16_" gradientUnits="userSpaceOnUse" x1="66.6471" y1="108.4209" x2="103.601" y2="108.4209">
		<stop  offset="0" style="stop-color:#FEE7B3"/>
		<stop  offset="1" style="stop-color:#FFCC35"/>
	</linearGradient>
	<path class="st28" d="M103.6,108.4c0,6.4-8.3,11.6-18.5,11.6s-18.5-5.2-18.5-11.6c0-0.7,0-3.4,0-4c0-5.7,9.4-7.6,18.5-7.6
		c9.1,0,18.4,2.5,18.4,8.2C103.6,105.8,103.6,107.7,103.6,108.4z"/>
	<linearGradient id="SVGID_17_" gradientUnits="userSpaceOnUse" x1="103.601" y1="106.4209" x2="66.6471" y2="106.4209">
		<stop  offset="0" style="stop-color:#FFB216"/>
		<stop  offset="1" style="stop-color:#FFE18E"/>
	</linearGradient>
	<path class="st29" d="M103.6,106.4c0,6.4-8.3,11.6-18.5,11.6s-18.5-5.2-18.5-11.6c0-0.7,0-3.4,0-4c0-5.7,9.4-7.6,18.5-7.6
		c9.1,0,18.4,2.5,18.4,8.2C103.6,103.8,103.6,105.7,103.6,106.4z"/>
	<linearGradient id="SVGID_18_" gradientUnits="userSpaceOnUse" x1="66.6471" y1="102.4209" x2="103.601" y2="102.4209">
		<stop  offset="0" style="stop-color:#FEE7B3"/>
		<stop  offset="1" style="stop-color:#FFCC35"/>
	</linearGradient>
	<ellipse class="st30" cx="85.1" cy="102.4" rx="18.5" ry="11.6"/>
	<linearGradient id="SVGID_19_" gradientUnits="userSpaceOnUse" x1="70.9204" y1="102.4209" x2="99.3277" y2="102.4209">
		<stop  offset="0" style="stop-color:#F79521"/>
		<stop  offset="0.3724" style="stop-color:#FBAD38"/>
		<stop  offset="0.9937" style="stop-color:#F7931F"/>
	</linearGradient>
	<ellipse class="st31" cx="85.1" cy="102.4" rx="14.2" ry="8.9"/>
	<linearGradient id="SVGID_20_" gradientUnits="userSpaceOnUse" x1="85.1241" y1="106.4024" x2="85.1241" y2="98.4393">
		<stop  offset="0" style="stop-color:#FFFFFF"/>
		<stop  offset="0.9937" style="stop-color:#FEE29C"/>
	</linearGradient>
	<path class="st32" d="M78.5,101.1v-2.6h2.2v0.7C79.7,99.6,78.9,100.3,78.5,101.1z M89.5,105.7v0.7h2.2v-2.6
		C91.3,104.6,90.5,105.2,89.5,105.7z M84.2,105.1c-2-0.3-3.5-1.3-3.5-2.6c0-1.5,2-2.7,4.5-2.7c2.5,0,4.5,1.2,4.5,2.7
		c0,1.3-1.5,2.4-3.5,2.6v1.3c3.2-0.3,5.7-1.9,5.7-3.9c0-2.2-3-4-6.6-4c-3.7,0-6.6,1.8-6.6,4c0,2,2.5,3.7,5.7,3.9V105.1z"/>
</g>
</svg>
