<?xml version="1.0" encoding="utf-8"?>
<!-- Generator: Adobe Illustrator 23.0.1, SVG Export Plug-In . SVG Version: 6.00 Build 0)  -->
<svg version="1.1" id="图层_1" xmlns="http://www.w3.org/2000/svg" xmlns:xlink="http://www.w3.org/1999/xlink" x="0px" y="0px"
	 viewBox="0 0 16 16" style="enable-background:new 0 0 16 16;" xml:space="preserve">
<style type="text/css">
	.st0{fill-rule:evenodd;clip-rule:evenodd;fill:#ECBA6F;}
	.st1{fill-rule:evenodd;clip-rule:evenodd;fill:#FFFFFF;fill-opacity:0;}
</style>
<title>ic_import</title>
<desc>Created with Sketch.</desc>
<path id="Combined-Shape" class="st0" d="M13.5,1C14.3,1,15,1.7,15,2.5v11c0,0.8-0.7,1.5-1.5,1.5h-11C1.7,15,1,14.3,1,13.5v-2
	C1,11.2,1.2,11,1.5,11S2,11.2,2,11.5v2C2,13.8,2.2,14,2.5,14h11c0.3,0,0.5-0.2,0.5-0.5v-11C14,2.2,13.8,2,13.5,2h-11
	C2.2,2,2,2.2,2,2.5v2C2,4.8,1.8,5,1.5,5S1,4.8,1,4.5v-2C1,1.7,1.7,1,2.5,1H13.5z M1,8c0-0.3,0.2-0.5,0.5-0.5h7.8L7.6,5.9
	c-0.2-0.2-0.2-0.5,0-0.7C7.8,5,8.2,5,8.4,5.1l2.5,2.5c0,0,0.1,0.1,0.1,0.2C11,7.9,11,8.1,11,8.2c0,0.1-0.1,0.1-0.1,0.2l-2.5,2.5
	C8.3,11,8.1,11,8,11c-0.1,0-0.3,0-0.4-0.1c-0.2-0.2-0.2-0.5,0-0.7l1.6-1.6H1.5C1.2,8.5,1,8.3,1,8z"/>
<rect id="Overlay" x="-18.2" y="-1.4" class="st1" width="16" height="16"/>
</svg>
