<?xml version="1.0" encoding="utf-8"?>
<!-- Generator: Adobe Illustrator 23.0.1, SVG Export Plug-In . SVG Version: 6.00 Build 0)  -->
<svg version="1.1" id="图层_1" xmlns="http://www.w3.org/2000/svg" xmlns:xlink="http://www.w3.org/1999/xlink" x="0px" y="0px"
	 viewBox="0 0 32 32" style="enable-background:new 0 0 32 32;" xml:space="preserve">
<style type="text/css">
	.st0{fill-rule:evenodd;clip-rule:evenodd;fill:#FF676B;}
	.st1{fill-rule:evenodd;clip-rule:evenodd;fill:#FFFFFF;}
</style>
<title>ic_leasing_cancel</title>
<desc>Created with Sketch.</desc>
<circle id="Oval-2" class="st0" cx="16" cy="16" r="16"/>
<path id="Shape" class="st1" d="M10,22.7l-2.1,2.1C7.8,24.9,7.6,25,7.5,25s-0.3,0-0.4-0.1c-0.2-0.2-0.2-0.5,0-0.7L9.3,22
	c-0.8-0.9-1.5-2-1.9-3.2C6.2,15,7.6,11,10.7,8.7c0.1-0.1,0.2-0.1,0.4-0.1c0.1,0,0.2,0.1,0.3,0.2c0.2,0.2,0.1,0.5-0.1,0.7
	c-2.8,2-4,5.6-2.9,8.9c0.3,1.1,0.9,2,1.6,2.8l5.5-5.5V7.7l-1.6,1.7c-0.2,0.2-0.5,0.2-0.7,0c-0.2-0.2-0.2-0.5,0-0.7l2.5-2.6
	c0.2-0.2,0.5-0.2,0.7,0l2.5,2.6c0.2,0.2,0.2,0.5,0,0.7c-0.1,0.1-0.2,0.1-0.4,0.1c-0.1,0-0.3-0.1-0.4-0.1l-1.6-1.7v7.1l4.8-4.8
	c-0.2-0.2-0.4-0.3-0.6-0.5c-0.1-0.1-0.2-0.2-0.2-0.3c0-0.1,0-0.3,0.1-0.4c0.2-0.2,0.5-0.3,0.7-0.1c0.3,0.2,0.5,0.4,0.7,0.6l2.1-2.1
	c0.2-0.2,0.5-0.2,0.7,0c0.2,0.2,0.2,0.5,0,0.7L22.7,10c2.1,2.4,2.9,5.7,1.9,8.8C23.4,22.5,19.9,25,16,25C13.7,25,11.6,24.1,10,22.7z
	 M10.7,22c1.4,1.3,3.3,2,5.3,2c3.5,0,6.5-2.2,7.6-5.5c0.9-2.7,0.2-5.7-1.6-7.8l-5.6,5.6c0,0,0,0.1-0.1,0.1L10.7,22z"/>
</svg>
