<?xml version="1.0" encoding="utf-8"?>
<!-- Generator: Adobe Illustrator 23.0.1, SVG Export Plug-In . SVG Version: 6.00 Build 0)  -->
<svg version="1.1" id="图层_1" xmlns="http://www.w3.org/2000/svg" xmlns:xlink="http://www.w3.org/1999/xlink" x="0px" y="0px"
	 viewBox="0 0 32 32" style="enable-background:new 0 0 32 32;" xml:space="preserve">
<style type="text/css">
	.st0{fill-rule:evenodd;clip-rule:evenodd;fill:#ECBA6F;}
	.st1{fill-rule:evenodd;clip-rule:evenodd;fill:#FFFFFF;}
</style>
<title>ic_incoming_cancel</title>
<desc>Created with Sketch.</desc>
<circle id="Oval-2" class="st0" cx="16" cy="16" r="16"/>
<path id="Shape" class="st1" d="M10,9.3L7.9,7.1C7.8,7.1,7.6,7,7.5,7c-0.1,0-0.3,0-0.4,0.1C7,7.3,7,7.7,7.1,7.9L9.3,10
	c-0.8,0.9-1.5,2-1.9,3.2C6.2,17,7.6,21,10.7,23.3c0.1,0.1,0.2,0.1,0.4,0.1c0.1,0,0.2-0.1,0.3-0.2c0.2-0.2,0.1-0.5-0.1-0.7
	c-2.8-2-4-5.6-2.9-8.9c0.3-1.1,0.9-2,1.6-2.8l5.5,5.5v8.1l-1.6-1.7c-0.2-0.2-0.5-0.2-0.7,0c-0.2,0.2-0.2,0.5,0,0.7l2.5,2.6
	c0.2,0.2,0.5,0.2,0.7,0l2.5-2.6c0.2-0.2,0.2-0.5,0-0.7c-0.1-0.1-0.2-0.1-0.4-0.1c-0.1,0-0.3,0-0.4,0.1l-1.6,1.7v-7.1l4.8,4.8
	c-0.2,0.2-0.4,0.3-0.6,0.5c-0.1,0.1-0.2,0.2-0.2,0.3c0,0.1,0,0.3,0.1,0.4c0.2,0.2,0.5,0.3,0.7,0.1c0.3-0.2,0.5-0.4,0.7-0.6l2.1,2.1
	c0.2,0.2,0.5,0.2,0.7,0c0.2-0.2,0.2-0.5,0-0.7L22.7,22c2.1-2.4,2.9-5.7,1.9-8.8C23.4,9.5,19.9,7,16,7C13.7,7,11.6,7.9,10,9.3z
	 M10.7,10C12.1,8.8,14,8,16,8c3.5,0,6.5,2.2,7.6,5.5c0.9,2.7,0.2,5.7-1.6,7.8l-5.6-5.6c0,0,0-0.1-0.1-0.1L10.7,10z"/>
</svg>
