<?xml version="1.0" encoding="utf-8"?>
<!-- Generator: Adobe Illustrator 23.0.1, SVG Export Plug-In . SVG Version: 6.00 Build 0)  -->
<svg version="1.1" id="图层_1" xmlns="http://www.w3.org/2000/svg" xmlns:xlink="http://www.w3.org/1999/xlink" x="0px" y="0px"
	 viewBox="0 0 32 32" style="enable-background:new 0 0 32 32;" xml:space="preserve">
<style type="text/css">
	.st0{fill-rule:evenodd;clip-rule:evenodd;fill:#52C1FF;}
	.st1{fill-rule:evenodd;clip-rule:evenodd;fill:#FFFFFF;}
</style>
<title>ic_incoming</title>
<desc>Created with Sketch.</desc>
<circle id="Oval-2" class="st0" cx="16" cy="16" r="16"/>
<path id="Shape" class="st1" d="M16,7c-3.9,0-7.3,2.5-8.5,6.2C6.2,17,7.6,21,10.7,23.3c0.1,0.1,0.2,0.1,0.4,0.1
	c0.1,0,0.2-0.1,0.3-0.2c0.2-0.2,0.1-0.5-0.1-0.7c-2.8-2-4-5.6-2.9-8.9C9.5,10.2,12.5,8,16,8s6.5,2.2,7.6,5.5s-0.1,6.9-2.9,8.9
	c-0.1,0.1-0.2,0.2-0.2,0.3c0,0.1,0,0.3,0.1,0.4c0.2,0.2,0.5,0.3,0.7,0.1c3.2-2.3,4.5-6.4,3.3-10.1C23.3,9.5,19.9,7,16,7 M16.4,25.9
	l2.5-2.6c0.2-0.2,0.2-0.5,0-0.7c-0.1-0.1-0.2-0.1-0.4-0.1c-0.1,0-0.3,0-0.4,0.1l-1.6,1.7v-8.8c0-0.3-0.2-0.5-0.5-0.5
	c-0.3,0-0.5,0.2-0.5,0.5v8.8l-1.6-1.7c-0.2-0.2-0.5-0.2-0.7,0s-0.2,0.5,0,0.7l2.5,2.6C15.8,26,16.2,26,16.4,25.9"/>
</svg>
