<?xml version="1.0" encoding="utf-8"?>
<!-- Generator: Adobe Illustrator 23.0.1, SVG Export Plug-In . SVG Version: 6.00 Build 0)  -->
<svg version="1.1" id="图层_1" xmlns="http://www.w3.org/2000/svg" xmlns:xlink="http://www.w3.org/1999/xlink" x="0px" y="0px"
	 viewBox="0 0 32 32" style="enable-background:new 0 0 32 32;" xml:space="preserve">
<style type="text/css">
	.st0{fill-rule:evenodd;clip-rule:evenodd;fill:#59D877;}
	.st1{fill-rule:evenodd;clip-rule:evenodd;fill:#FFFFFF;}
</style>
<title>ic_leasing_start</title>
<desc>Created with Sketch.</desc>
<circle id="Oval-2" class="st0" cx="16" cy="16" r="16"/>
<path id="Shape" class="st1" d="M16,25c-3.9,0-7.3-2.5-8.5-6.2S7.6,11,10.7,8.7c0.1-0.1,0.2-0.1,0.4-0.1c0.1,0,0.2,0.1,0.3,0.2
	c0.2,0.2,0.1,0.5-0.1,0.7c-2.8,2-4,5.6-2.9,8.9S12.5,24,16,24s6.5-2.2,7.6-5.5s-0.1-6.9-2.9-8.9c-0.1-0.1-0.2-0.2-0.2-0.3
	s0-0.3,0.1-0.4c0.2-0.2,0.5-0.3,0.7-0.1c3.2,2.3,4.5,6.4,3.3,10.1C23.4,22.5,19.9,25,16,25z M16.4,6.1l2.5,2.6
	c0.2,0.2,0.2,0.5,0,0.7c-0.1,0.1-0.2,0.1-0.4,0.1c-0.1,0-0.3-0.1-0.4-0.1l-1.6-1.7v8.8c0,0.3-0.2,0.5-0.5,0.5
	c-0.3,0-0.5-0.2-0.5-0.5V7.7l-1.6,1.7c-0.2,0.2-0.5,0.2-0.7,0s-0.2-0.5,0-0.7l2.5-2.6C15.8,6,16.2,6,16.4,6.1z"/>
</svg>
