<?xml version="1.0" encoding="utf-8"?>
<!-- Generator: Adobe Illustrator 23.0.1, SVG Export Plug-In . SVG Version: 6.00 Build 0)  -->
<svg version="1.1" id="图层_1" xmlns="http://www.w3.org/2000/svg" xmlns:xlink="http://www.w3.org/1999/xlink" x="0px" y="0px"
	 viewBox="0 0 16 16" style="enable-background:new 0 0 16 16;" xml:space="preserve">
<style type="text/css">
	.st0{fill-rule:evenodd;clip-rule:evenodd;fill:#FFFFFF;fill-opacity:0;}
	.st1{fill-rule:evenodd;clip-rule:evenodd;fill:#222222;}
	.st2{fill:none;}
</style>
<title>ic_more_hover</title>
<desc>Created with Sketch.</desc>
<rect id="Guide" y="0" class="st0" width="16" height="16"/>
<path id="Combined-Shape" class="st1" d="M8,4.5C7.2,4.5,6.5,3.8,6.5,3S7.2,1.5,8,1.5S9.5,2.2,9.5,3S8.8,4.5,8,4.5z M8,9.5
	C7.2,9.5,6.5,8.8,6.5,8S7.2,6.5,8,6.5S9.5,7.2,9.5,8S8.8,9.5,8,9.5z M8,14.5c-0.8,0-1.5-0.7-1.5-1.5s0.7-1.5,1.5-1.5
	s1.5,0.7,1.5,1.5S8.8,14.5,8,14.5z"/>
<rect id="Overlay" y="0" class="st2" width="16" height="16"/>
</svg>
