<?xml version="1.0" encoding="utf-8"?>
<!-- Generator: Adobe Illustrator 23.0.1, SVG Export Plug-In . SVG Version: 6.00 Build 0)  -->
<svg version="1.1" id="图层_1" xmlns="http://www.w3.org/2000/svg" xmlns:xlink="http://www.w3.org/1999/xlink" x="0px" y="0px"
	 viewBox="0 0 24 24" style="enable-background:new 0 0 24 24;" xml:space="preserve">
<style type="text/css">
	.st0{fill:#AEAEAE;}
</style>
<title>ic_minting_Line</title>
<desc>Created with Sketch.</desc>
<g id="Export">
	<g id="ic_minting_Line" transform="translate(1.000000, 1.000000)">
		<path id="Shape" class="st0" d="M1,19.5c0,0.2,0.5,0.6,1.4,0.9C3.5,20.8,4.9,21,6.5,21s3-0.2,4.1-0.6c0.9-0.3,1.4-0.7,1.4-0.9
			v-1.6C10.8,18.6,8.8,19,6.5,19S2.2,18.6,1,17.9V19.5z M0,19.5v-3C0,15,2.9,14,6.5,14s6.5,1,6.5,2.5v3C13,21,10.1,22,6.5,22
			S0,21,0,19.5z M6.5,18c1.6,0,3-0.2,4.1-0.6c0.9-0.3,1.4-0.7,1.4-0.9s-0.5-0.6-1.4-0.9C9.5,15.2,8.1,15,6.5,15s-3,0.2-4.1,0.6
			C1.5,15.9,1,16.3,1,16.5s0.5,0.6,1.4,0.9C3.5,17.8,4.9,18,6.5,18z M12.7,6.2l8.9,8.1c0.3,0.3,0.4,0.7,0.4,1.1c0,0.4-0.2,0.8-0.4,1
			l-1.1,1.1c-0.3,0.3-0.6,0.4-1,0.4c-0.4,0-0.8-0.2-1-0.4l-8.1-8.9l-2.9,2.9c-0.3,0.3-0.9,0.3-1.3,0L3.3,8.7c-0.4-0.4-0.4-0.9,0-1.3
			l5.1-5.2l4.3-2.1c0.4-0.2,0.8-0.2,1.1,0.1L15.6,2c0.2,0.2,0.3,0.4,0.3,0.6c0,0.2-0.1,0.5-0.3,0.6L12.7,6.2z M14.8,2.7L13.2,1
			c0,0,0,0,0,0L9,3.1L4,8l2.7,2.7l3.5-3.6l1-1L12,5.5L14.8,2.7z M11,8l8.1,8.9c0.1,0.1,0.2,0.1,0.3,0.1c0.1,0,0.2,0,0.3-0.1l1.1-1.1
			c0.1-0.1,0.1-0.2,0.1-0.3c0-0.1,0-0.3-0.1-0.3L12,6.9L11,8z"/>
	</g>
</g>
</svg>
