<?xml version="1.0" encoding="utf-8"?>
<!-- Generator: Adobe Illustrator 23.0.1, SVG Export Plug-In . SVG Version: 6.00 Build 0)  -->
<svg version="1.1" id="图层_1" xmlns="http://www.w3.org/2000/svg" xmlns:xlink="http://www.w3.org/1999/xlink" x="0px" y="0px"
	 viewBox="0 0 14 14" style="enable-background:new 0 0 14 14;" xml:space="preserve">
<style type="text/css">
	.st0{fill:#ECBA6F;}
</style>
<title>ic_magnifier</title>
<desc>Created with Sketch.</desc>
<g id="Page-1">
	<g transform="translate(-936.000000, -428.000000)">
		<g id="Window" transform="translate(450.000000, 118.000000)">
			<g transform="translate(40.000000, 293.000000)">
				<path id="ic_magnifier" class="st0" d="M456.6,26.9l3.3,3.3c0.2,0.2,0.2,0.5,0,0.7c-0.2,0.2-0.5,0.2-0.7,0l-3.3-3.3
					c-1,0.9-2.4,1.4-3.9,1.4c-3.3,0-6-2.7-6-6s2.7-6,6-6s6,2.7,6,6C458,24.5,457.5,25.8,456.6,26.9z M452,28c2.8,0,5-2.2,5-5
					s-2.2-5-5-5s-5,2.2-5,5S449.2,28,452,28z"/>
			</g>
		</g>
	</g>
</g>
</svg>
