<?xml version="1.0" encoding="utf-8"?>
<!-- Generator: Adobe Illustrator 23.0.1, SVG Export Plug-In . SVG Version: 6.00 Build 0)  -->
<svg version="1.1" id="图层_1" xmlns="http://www.w3.org/2000/svg" xmlns:xlink="http://www.w3.org/1999/xlink" x="0px" y="0px"
	 viewBox="0 0 24 24" style="enable-background:new 0 0 24 24;" xml:space="preserve">
<style type="text/css">
	.st0{fill:#ECBA6F;}
</style>
<title>ic_minting_Solid</title>
<desc>Created with Sketch.</desc>
<g id="Export">
	<g id="ic_minting_Solid" transform="translate(1.000000, 1.000000)">
		<path id="Shape" class="st0" d="M13,18.4v1.1C13,21,10.1,22,6.5,22S0,21,0,19.5v-1.1c1.3,1,3.7,1.6,6.5,1.6S11.7,19.5,13,18.4z
			 M0,16.5C0,15,2.9,14,6.5,14s6.5,1,6.5,2.5S10.1,19,6.5,19S0,18,0,16.5z M12.7,6.2l8.9,8.1c0.3,0.3,0.4,0.7,0.4,1.1
			c0,0.4-0.2,0.8-0.4,1l-1.1,1.1c-0.3,0.3-0.6,0.4-1,0.4c-0.4,0-0.8-0.2-1-0.4l-8.1-8.9l-2.9,2.9c-0.3,0.3-0.9,0.3-1.3,0L3.3,8.7
			c-0.4-0.4-0.4-0.9,0-1.3l5.1-5.2l4.3-2.1c0.4-0.2,0.8-0.2,1.1,0.1L15.6,2c0.2,0.2,0.3,0.4,0.3,0.6c0,0.2-0.1,0.5-0.3,0.6L12.7,6.2
			z"/>
	</g>
</g>
</svg>
