<?xml version="1.0" encoding="utf-8"?>
<!-- Generator: Adobe Illustrator 23.0.1, SVG Export Plug-In . SVG Version: 6.00 Build 0)  -->
<svg version="1.1" id="图层_1" xmlns="http://www.w3.org/2000/svg" xmlns:xlink="http://www.w3.org/1999/xlink" x="0px" y="0px"
	 viewBox="0 0 24 24" style="enable-background:new 0 0 24 24;" xml:space="preserve">
<style type="text/css">
	.st0{fill:#ECBA6F;}
</style>
<title>ic_polygon_solid</title>
<desc>Created with Sketch.</desc>
<g id="Export">
	<g id="ic_polygon_solid" transform="translate(-123.000000, -110.000000)">
		<g transform="translate(124.000000, 110.000000)">
			<path class="st0" d="M11.8,0.2l9,5.2c0.5,0.3,0.8,0.8,0.8,1.3v10.5c0,0.5-0.3,1-0.8,1.3l-9,5.2c-0.5,0.3-1,0.3-1.5,0l-9-5.2
				c-0.5-0.3-0.8-0.8-0.8-1.3V6.8c0-0.5,0.3-1,0.8-1.3l9-5.2C10.7-0.1,11.3-0.1,11.8,0.2z M10.5,12.6v6.7c0,0.7,1,0.7,1,0v-6.7
				l6.3-4.1C18,8.4,18,8.1,17.9,7.8c-0.2-0.2-0.5-0.3-0.7-0.1L11,11.7L4.7,7.7C4.5,7.5,4.2,7.6,4,7.8C3.9,8.1,4,8.4,4.2,8.5
				L10.5,12.6z"/>
		</g>
	</g>
</g>
</svg>
