<?xml version="1.0" encoding="utf-8"?>
<!-- Generator: Adobe Illustrator 23.0.1, SVG Export Plug-In . SVG Version: 6.00 Build 0)  -->
<svg version="1.1" id="图层_1" xmlns="http://www.w3.org/2000/svg" xmlns:xlink="http://www.w3.org/1999/xlink" x="0px" y="0px"
	 viewBox="0 0 24 24" style="enable-background:new 0 0 24 24;" xml:space="preserve">
<style type="text/css">
	.st0{fill:#AEAEAE;}
</style>
<title>ic_polygon_line</title>
<desc>Created with Sketch.</desc>
<g id="Export">
	<g id="ic_polygon_line" transform="translate(-73.000000, -110.000000)">
		<g transform="translate(74.000000, 110.000000)">
			<path class="st0" d="M11.8,0.2l9,5.2c0.5,0.3,0.8,0.8,0.8,1.3v10.5c0,0.5-0.3,1-0.8,1.3l-9,5.2c-0.5,0.3-1,0.3-1.5,0l-9-5.2
				c-0.5-0.3-0.8-0.8-0.8-1.3V6.8c0-0.5,0.3-1,0.8-1.3l9-5.2C10.7-0.1,11.3-0.1,11.8,0.2z M11.3,1.1c-0.2-0.1-0.3-0.1-0.5,0l-9,5.2
				C1.6,6.4,1.5,6.6,1.5,6.8v10.5c0,0.2,0.1,0.3,0.3,0.4l9,5.2c0.2,0.1,0.3,0.1,0.5,0l9-5.2c0.2-0.1,0.3-0.3,0.3-0.4V6.8
				c0-0.2-0.1-0.3-0.3-0.4L11.3,1.1z M10.5,12.6L4.2,8.5C4,8.4,3.9,8.1,4,7.8c0.2-0.2,0.5-0.3,0.7-0.1l6.2,4.1l6.2-4.1
				c0.2-0.2,0.5-0.1,0.7,0.1C18,8.1,18,8.4,17.7,8.5l-6.3,4.1v6.7c0,0.7-1,0.7-1,0V12.6z"/>
		</g>
	</g>
</g>
</svg>
