<?xml version="1.0" encoding="utf-8"?>
<!-- Generator: Adobe Illustrator 23.0.1, SVG Export Plug-In . SVG Version: 6.00 Build 0)  -->
<svg version="1.1" id="图层_1" xmlns="http://www.w3.org/2000/svg" xmlns:xlink="http://www.w3.org/1999/xlink" x="0px" y="0px"
	 viewBox="0 0 32 32" style="enable-background:new 0 0 32 32;" xml:space="preserve">
<style type="text/css">
	.st0{fill-rule:evenodd;clip-rule:evenodd;fill:#292932;}
	.st1{fill-rule:evenodd;clip-rule:evenodd;fill:#ECBA6E;}
</style>
<title>ic_received</title>
<desc>Created with Sketch.</desc>
<circle id="Oval-2" class="st0" cx="16" cy="16" r="15.5"/>
<g id="Shape" transform="translate(10.000000, 9.000000)">
	<path id="Fill-1" class="st1" d="M11.9,8.4l-5.5,5.5c-0.2,0.2-0.5,0.2-0.7,0L0.1,8.4C0,8.2,0,7.8,0.1,7.6c0.2-0.2,0.5-0.2,0.7,0
		l4.6,4.6V0.5C5.5,0.2,5.7,0,6,0s0.5,0.2,0.5,0.5v11.8l4.6-4.6c0.1-0.1,0.2-0.1,0.4-0.1c0.1,0,0.3,0,0.4,0.1C12,7.8,12,8.2,11.9,8.4
		"/>
</g>
</svg>
