<?xml version="1.0" encoding="utf-8"?>
<!-- Generator: Adobe Illustrator 23.0.1, SVG Export Plug-In . SVG Version: 6.00 Build 0)  -->
<svg version="1.1" id="图层_1" xmlns="http://www.w3.org/2000/svg" xmlns:xlink="http://www.w3.org/1999/xlink" x="0px" y="0px"
	 viewBox="0 0 16 16" style="enable-background:new 0 0 16 16;" xml:space="preserve">
<style type="text/css">
	.st0{fill-rule:evenodd;clip-rule:evenodd;fill:#AEAEAE;}
</style>
<title>ic_sort_down</title>
<desc>Created with Sketch.</desc>
<g id="Export">
	<g id="ic_sort_down" transform="translate(0.000000, 2.000000)">
		<path id="Combined-Shape" class="st0" d="M0.5,2h5C5.8,2,6,2.2,6,2.5S5.8,3,5.5,3h-5C0.2,3,0,2.8,0,2.5S0.2,2,0.5,2z M0.5,6h7
			C7.8,6,8,6.2,8,6.5S7.8,7,7.5,7h-7C0.2,7,0,6.8,0,6.5S0.2,6,0.5,6z M0.5,10h9c0.3,0,0.5,0.2,0.5,0.5S9.8,11,9.5,11h-9
			C0.2,11,0,10.8,0,10.5S0.2,10,0.5,10z M13.4,11.9c-0.2,0.2-0.5,0.2-0.7,0c-0.1-0.1-0.1-0.2-0.1-0.4l0-1.2V0.5
			C12.5,0.2,12.7,0,13,0c0.3,0,0.5,0.2,0.5,0.5v9.8l1.6-1.6c0.1-0.1,0.2-0.1,0.4-0.1c0.1,0,0.3,0,0.4,0.1c0.2,0.2,0.2,0.5,0,0.7
			L13.4,11.9z"/>
	</g>
</g>
</svg>
