<?xml version="1.0" encoding="utf-8"?>
<!-- Generator: Adobe Illustrator 23.0.1, SVG Export Plug-In . SVG Version: 6.00 Build 0)  -->
<svg version="1.1" id="图层_1" xmlns="http://www.w3.org/2000/svg" xmlns:xlink="http://www.w3.org/1999/xlink" x="0px" y="0px"
	 viewBox="0 0 32 32" style="enable-background:new 0 0 32 32;" xml:space="preserve">
<style type="text/css">
	.st0{fill-rule:evenodd;clip-rule:evenodd;fill:#A1D390;}
</style>
<title>ic_token1</title>
<desc>Created with Sketch.</desc>
<g id="Export">
	<g id="ic_token1" transform="translate(-243.000000, -106.000000)">
		<g transform="translate(243.000000, 106.000000)">
			<path class="st0" d="M16,32C7.2,32,0,24.8,0,16S7.2,0,16,0s16,7.2,16,16S24.8,32,16,32z M16,24.5c3.9,0,7-3.1,7-7
				c0-2.6-2.2-6.1-6.6-10.8c-0.2-0.2-0.5-0.2-0.7,0C11.2,11.4,9,14.9,9,17.5C9,21.4,12.1,24.5,16,24.5z M10,17.5c0-2.2,2-5.4,6-9.8
				c4,4.3,6,7.6,6,9.8c0,3.3-2.7,6-6,6S10,20.8,10,17.5z"/>
		</g>
	</g>
</g>
</svg>
