<?xml version="1.0" encoding="utf-8"?>
<!-- Generator: Adobe Illustrator 23.0.1, SVG Export Plug-In . SVG Version: 6.00 Build 0)  -->
<svg version="1.1" id="图层_1" xmlns="http://www.w3.org/2000/svg" xmlns:xlink="http://www.w3.org/1999/xlink" x="0px" y="0px"
	 viewBox="0 0 32 32" style="enable-background:new 0 0 32 32;" xml:space="preserve">
<style type="text/css">
	.st0{fill-rule:evenodd;clip-rule:evenodd;fill:#ECBA6F;}
</style>
<title>ic_token2</title>
<desc>Created with Sketch.</desc>
<path class="st0" d="M16,32C7.2,32,0,24.8,0,16S7.2,0,16,0s16,7.2,16,16S24.8,32,16,32z M16,9.2l6.8,6.8L16,22.8L9.2,16L16,9.2z
	 M16.4,8.1c-0.2-0.2-0.5-0.2-0.7,0l-7.5,7.5c-0.2,0.2-0.2,0.5,0,0.7l7.5,7.5c0.2,0.2,0.5,0.2,0.7,0l7.5-7.5c0.2-0.2,0.2-0.5,0-0.7
	L16.4,8.1z"/>
</svg>
