<?xml version="1.0" encoding="utf-8"?>
<!-- Generator: Adobe Illustrator 23.0.1, SVG Export Plug-In . SVG Version: 6.00 Build 0)  -->
<svg version="1.1" id="图层_1" xmlns="http://www.w3.org/2000/svg" xmlns:xlink="http://www.w3.org/1999/xlink" x="0px" y="0px"
	 viewBox="0 0 24 24" style="enable-background:new 0 0 24 24;" xml:space="preserve">
<style type="text/css">
	.st0{fill-rule:evenodd;clip-rule:evenodd;fill:#D8D8D8;fill-opacity:0;}
	.st1{fill:#AEAEAE;}
	.st2{fill:none;}
</style>
<title>ic_transaction_line</title>
<desc>Created with Sketch.</desc>
<rect id="Gudie" y="0" class="st0" width="24" height="24"/>
<g id="Shape" transform="translate(1.000000, 1.000000)">
	<path id="Combined-Shape" class="st1" d="M11,0c2.9,0,5.7,1.2,7.8,3.2S22,8.1,22,11c0,6.1-4.9,11-11,11S0,17.1,0,11S4.9,0,11,0z
		 M11,1C5.5,1,1,5.5,1,11s4.5,10,10,10s10-4.5,10-10c0-2.7-1.1-5.2-2.9-7.1S13.7,1,11,1z M13.5,5.8c0.1,0.2,0,0.4-0.1,0.5l-7,7
		c-0.1,0.1-0.2,0.1-0.4,0.1s-0.3,0-0.4-0.1c-0.2-0.2-0.2-0.5,0-0.7l6.1-6.1H9C8.7,6.5,8.5,6.3,8.5,6c0-0.3,0.2-0.5,0.5-0.5h4
		C13.2,5.5,13.4,5.6,13.5,5.8z M16.4,8.6c0.2,0.2,0.2,0.5,0,0.7l-6.1,6.1H13c0.3,0,0.5,0.2,0.5,0.5c0,0.3-0.2,0.5-0.5,0.5H9
		c-0.2,0-0.4-0.1-0.5-0.3c-0.1-0.2,0-0.4,0.1-0.5l7-7C15.8,8.5,16.2,8.5,16.4,8.6z"/>
</g>
<rect id="Overlay" y="0" class="st2" width="24" height="24"/>
</svg>
