<?xml version="1.0" encoding="utf-8"?>
<!-- Generator: Adobe Illustrator 23.0.1, SVG Export Plug-In . SVG Version: 6.00 Build 0)  -->
<svg version="1.1" id="图层_1" xmlns="http://www.w3.org/2000/svg" xmlns:xlink="http://www.w3.org/1999/xlink" x="0px" y="0px"
	 viewBox="0 0 24 24" style="enable-background:new 0 0 24 24;" xml:space="preserve">
<style type="text/css">
	.st0{fill:none;}
	.st1{fill-rule:evenodd;clip-rule:evenodd;fill:#222222;}
</style>
<title>ic_wallet_line</title>
<desc>Created with Sketch.</desc>
<rect id="Guide" y="0" class="st0" width="24" height="24"/>
<g id="Sahpe" transform="translate(1.000000, 3.000000)">
	<path id="Combined-Shape" class="st1" d="M18,3c0.6,0,1,0.4,1,1v2h2V1H3.5C2.1,1,1,2.1,1,3.5S2.1,6,3.5,6H15v1H3.5
		C2.5,7,1.6,6.6,1,5.9V15c0,1.1,0.9,2,2,2h12V6h0.5H15c0.6,0,1,0.4,1,1v10c0,0.6-0.4,1-1,1H3c-1.7,0-3-1.3-3-3V4.5C0,4.3,0,4.1,0,4
		c0-0.2,0-0.3,0-0.5C0,1.6,1.6,0,3.5,0h1H21c0.6,0,1,0.4,1,1v5v7.5c0,0.3-0.2,0.5-0.5,0.5S21,13.8,21,13.5V6h-2v10.5
		c0,0.3-0.2,0.5-0.5,0.5S18,16.8,18,16.5V6h-2h2V4H4.5C4.2,4,4,3.8,4,3.5S4.2,3,4.5,3H18z"/>
</g>
</svg>
