<?xml version="1.0" encoding="utf-8"?>
<!-- Generator: Adobe Illustrator 23.0.1, SVG Export Plug-In . SVG Version: 6.00 Build 0)  -->
<svg version="1.1" id="图层_1" xmlns="http://www.w3.org/2000/svg" xmlns:xlink="http://www.w3.org/1999/xlink" x="0px" y="0px"
	 viewBox="0 0 302.3 159" style="enable-background:new 0 0 302.3 159;" xml:space="preserve">
<style type="text/css">
	.st0{fill:#FF9000;}
</style>
<title>V SYSTEMS_Logo_Shape</title>
<desc>Created with Sketch.</desc>
<g>
	<path d="M23.7,22.1V-0.1H0.3V56C4.8,42.6,13,30.9,23.7,22.1z"/>
	<path class="st0" d="M278.9,136.9v21.8h23.4v-54.6C297.7,117.1,289.5,128.5,278.9,136.9z"/>
	<path d="M116.4,89.3c-4.6,21.3-23.5,37.3-46.2,37.3c-26.1,0-47.2-21.1-47.2-47.2s21.1-47.2,47.2-47.2c22.7,0,41.6,16,46.2,37.3
		h22.7c-4.8-33.7-33.8-59.6-68.8-59.6C31.9,9.9,0.7,41,0.7,79.5s31.1,69.6,69.6,69.6c35,0,64-25.9,68.8-59.6h-22.7
		C116.4,89.5,116.4,89.3,116.4,89.3z"/>
	<path d="M232.9,9.8c-35,0-64,25.9-68.8,59.6h22.7c4.6-21.3,23.5-37.3,46.2-37.3c26.1,0,47.2,21.1,47.2,47.2s-21.1,47.2-47.2,47.2
		c-22.7,0-41.6-16-46.2-37.3H164c4.8,33.7,33.8,59.6,68.8,59.6c38.4,0,69.6-31.1,69.6-69.6S271.3,9.8,232.9,9.8z"/>
</g>
</svg>
