<?xml version="1.0" encoding="utf-8"?>
<!-- Generator: Adobe Illustrator 23.0.1, SVG Export Plug-In . SVG Version: 6.00 Build 0)  -->
<svg version="1.1" id="图层_1" xmlns="http://www.w3.org/2000/svg" xmlns:xlink="http://www.w3.org/1999/xlink" x="0px" y="0px"
	 viewBox="0 0 302 159" style="enable-background:new 0 0 302 159;" xml:space="preserve">
<style type="text/css">
	.st0{fill:#FFFFFF;}
	.st1{fill:#FF9000;}
</style>
<title>V SYSTEMS_Logo_Shape_White</title>
<desc>Created with Sketch.</desc>
<g>
	<path class="st0" d="M23.4,22.4V0.2H0v56.1C4.5,42.9,12.7,31.2,23.4,22.4z"/>
	<path class="st1" d="M278.6,137.2V159H302v-54.6C297.4,117.4,289.2,128.8,278.6,137.2z"/>
	<path class="st0" d="M116.1,89.6c-4.6,21.3-23.5,37.3-46.2,37.3c-26.1,0-47.2-21.1-47.2-47.2s21.1-47.2,47.2-47.2
		c22.7,0,41.6,16,46.2,37.3h22.7C134,36.1,105,10.2,70,10.2c-38.4,0-69.6,31.1-69.6,69.6s31.1,69.6,69.6,69.6
		c35,0,64-25.9,68.8-59.6h-22.7V89.6z"/>
	<path class="st0" d="M232.6,10.1c-35,0-64,25.9-68.8,59.6h22.7c4.6-21.3,23.5-37.3,46.2-37.3c26.1,0,47.2,21.1,47.2,47.2
		s-21.1,47.2-47.2,47.2c-22.7,0-41.6-16-46.2-37.3h-22.8c4.8,33.7,33.8,59.6,68.8,59.6c38.4,0,69.6-31.1,69.6-69.6
		S271,10.1,232.6,10.1z"/>
</g>
</svg>
