<?xml version="1.0" encoding="utf-8"?>
<!-- Generator: Adobe Illustrator 23.0.1, SVG Export Plug-In . SVG Version: 6.00 Build 0)  -->
<svg version="1.1" id="图层_1" xmlns="http://www.w3.org/2000/svg" xmlns:xlink="http://www.w3.org/1999/xlink" x="0px" y="0px"
	 viewBox="0 0 159.8 32" style="enable-background:new 0 0 159.8 32;" xml:space="preserve">
<style type="text/css">
	.st0{fill:#FF9000;}
</style>
<title>V_Wallet_Logo</title>
<desc>Created with Sketch.</desc>
<g>
	<g>
		<path d="M67.6,26.4V6h6.7c0.8,0,1.6,0.1,2.4,0.2c0.9,0.2,1.6,0.5,2.3,0.9c0.7,0.4,1.3,1,1.7,1.7c0.4,0.7,0.7,1.6,0.7,2.7
			c0,1.1-0.4,2.2-1.1,3c-0.2,0.2-0.4,0.4-0.7,0.6l-0.5,0.4l0.5,0.3c0.4,0.2,0.8,0.5,1.2,0.9c1,0.9,1.5,2.2,1.5,3.8
			c0,0.9-0.2,1.7-0.6,2.4c-0.4,0.7-1,1.4-1.7,1.9c-0.7,0.5-1.6,0.9-2.6,1.2c-1,0.3-2.1,0.4-3.3,0.4H67.6z M70.9,23.5h3.2
			c0.7,0,1.4-0.1,2-0.2c0.6-0.1,1.1-0.3,1.6-0.6c0.4-0.2,0.8-0.6,1-1c0.2-0.4,0.4-0.8,0.4-1.4c0-1.1-0.4-1.8-1.1-2.3
			c-0.8-0.5-2-0.8-3.5-0.8h-3.6V23.5z M70.9,14.4h3.5c0.4,0,0.9,0,1.4-0.1c0.4-0.1,0.8-0.2,1.2-0.5c0.3-0.2,0.6-0.5,0.8-0.8
			c0.2-0.3,0.3-0.8,0.3-1.3c0-0.5-0.1-0.9-0.3-1.3c-0.2-0.3-0.5-0.6-0.8-0.8c-0.4-0.2-0.8-0.4-1.3-0.5c-0.5-0.1-1.1-0.2-1.8-0.2
			h-2.9V14.4z"/>
		<path d="M87.8,26.4l5.3-7.8l-0.8,0.1c-0.2,0-0.4,0-0.6,0c-1,0-1.9-0.2-2.7-0.5c-0.8-0.3-1.6-0.8-2.2-1.3c-0.6-0.6-1.1-1.3-1.4-2.1
			c-0.3-0.8-0.5-1.7-0.5-2.6c0-1,0.2-1.9,0.5-2.7c0.4-0.8,0.9-1.5,1.5-2.1c0.6-0.6,1.4-1,2.3-1.3c0.9-0.3,1.8-0.5,2.9-0.5
			c1,0,2,0.2,2.9,0.5c0.9,0.3,1.6,0.8,2.3,1.3c0.7,0.6,1.2,1.3,1.5,2.1c0.4,0.8,0.5,1.7,0.5,2.7c0,1.1-0.2,2.1-0.6,3
			c-0.4,0.9-0.8,1.7-1.3,2.5l-5.7,8.7H87.8z M92.1,8.4c-0.6,0-1.1,0.1-1.6,0.3c-0.5,0.2-0.9,0.5-1.2,0.8c-0.3,0.3-0.6,0.7-0.8,1.2
			c-0.2,0.5-0.3,1-0.3,1.5c0,0.5,0.1,1,0.3,1.5c0.2,0.5,0.4,0.8,0.8,1.2c0.3,0.3,0.7,0.6,1.2,0.8c0.5,0.2,1,0.3,1.6,0.3
			s1.2-0.1,1.6-0.3c0.5-0.2,0.9-0.4,1.2-0.8c0.3-0.3,0.6-0.7,0.8-1.2c0.2-0.5,0.3-1,0.3-1.5c0-0.5-0.1-1-0.3-1.5
			c-0.2-0.5-0.5-0.9-0.8-1.2c-0.3-0.3-0.8-0.6-1.2-0.8C93.2,8.5,92.6,8.4,92.1,8.4z"/>
		<polygon points="107.8,26.4 107.8,10.3 104.7,12.8 102.6,10.6 108.5,6 111.1,6 111.1,26.4 		"/>
	</g>
	<g>
		<path d="M126.6,26.4c-0.9,0-1.7-0.2-2.5-0.5c-0.8-0.3-1.4-0.7-2-1.3c-0.6-0.5-1-1.2-1.3-1.9c-0.3-0.7-0.5-1.6-0.5-2.4
			c0-0.9,0.2-1.7,0.5-2.4c0.3-0.7,0.8-1.4,1.3-1.9c0.6-0.5,1.2-1,2-1.3c0.8-0.3,1.6-0.5,2.5-0.5c0.4,0,0.9,0,1.3,0.1
			c0.4,0.1,0.8,0.2,1.2,0.4c0.4,0.2,0.7,0.4,1,0.6c0.3,0.2,0.6,0.5,0.8,0.8l0.2,0.3l-1.6,1.1l-0.2-0.3c-0.1-0.1-0.2-0.3-0.4-0.4
			c-0.2-0.1-0.4-0.3-0.6-0.4c-0.2-0.1-0.5-0.2-0.8-0.3c-0.3-0.1-0.6-0.1-0.9-0.1c-0.7,0-1.3,0.1-1.8,0.3c-0.5,0.2-1,0.5-1.3,0.9
			c-0.4,0.4-0.6,0.8-0.8,1.4c-0.2,0.5-0.3,1.1-0.3,1.6c0,0.6,0.1,1.1,0.3,1.6c0.2,0.5,0.5,1,0.8,1.4c0.4,0.4,0.8,0.7,1.3,0.9
			c0.5,0.2,1.1,0.3,1.8,0.3c0.6,0,1.2-0.1,1.7-0.3c0.5-0.2,0.9-0.6,1.3-1.1l0.2-0.3l1.6,1l-0.2,0.3c-0.2,0.3-0.5,0.6-0.8,0.8
			c-0.3,0.3-0.6,0.5-1,0.7c-0.4,0.2-0.8,0.4-1.3,0.5C127.6,26.3,127.1,26.4,126.6,26.4z"/>
		<path d="M138.8,26.4c-0.9,0-1.7-0.2-2.5-0.5c-0.8-0.3-1.4-0.7-2-1.3c-0.6-0.5-1-1.2-1.3-1.9c-0.3-0.7-0.5-1.5-0.5-2.4
			s0.2-1.7,0.5-2.4c0.3-0.7,0.8-1.4,1.3-1.9c0.6-0.5,1.2-1,2-1.3c0.8-0.3,1.6-0.5,2.5-0.5s1.7,0.2,2.5,0.5c0.8,0.3,1.4,0.7,2,1.3
			c0.6,0.5,1,1.2,1.3,1.9c0.3,0.7,0.5,1.6,0.5,2.4c0,0.9-0.2,1.7-0.5,2.4c-0.3,0.7-0.8,1.4-1.3,1.9c-0.6,0.5-1.2,1-2,1.3
			S139.7,26.4,138.8,26.4z M138.8,16c-0.7,0-1.3,0.1-1.8,0.3c-0.5,0.2-1,0.5-1.3,0.9c-0.4,0.4-0.6,0.8-0.8,1.4
			c-0.2,0.5-0.3,1.1-0.3,1.6c0,0.6,0.1,1.1,0.3,1.7c0.2,0.5,0.5,1,0.8,1.4c0.4,0.4,0.8,0.7,1.3,0.9c0.5,0.2,1.1,0.3,1.8,0.3
			c0.7,0,1.3-0.1,1.8-0.3c0.5-0.2,1-0.5,1.3-0.9c0.4-0.4,0.6-0.8,0.8-1.4c0.2-0.5,0.3-1.1,0.3-1.7s-0.1-1.1-0.3-1.7
			c-0.2-0.5-0.5-1-0.8-1.4c-0.4-0.4-0.8-0.7-1.3-0.9C140.1,16.1,139.5,16,138.8,16z"/>
		<polygon points="157.7,26.1 157.6,18.2 157.3,19 154.2,26.1 153.1,26.1 150,19.1 149.6,18.2 149.7,26.1 147.7,26.1 147.7,14.6 
			150.1,14.5 153.7,22.8 157.1,14.5 159.6,14.5 159.6,26.1 		"/>
	</g>
	<circle cx="116.2" cy="24.9" r="1.5"/>
</g>
<g>
	<path d="M4.7,4.5V0H0v11.3C0.9,8.6,2.6,6.2,4.7,4.5z"/>
	<path class="st0" d="M56,27.5v4.4h4.7v-11C59.7,23.5,58.1,25.8,56,27.5z"/>
	<path d="M23.3,18c-0.9,4.3-4.7,7.5-9.3,7.5c-5.2,0-9.5-4.2-9.5-9.5S8.8,6.5,14,6.5c4.6,0,8.4,3.2,9.3,7.5h4.6
		c-1-6.8-6.8-12-13.8-12c-7.7,0-14,6.2-14,14s6.2,14,14,14c7,0,12.9-5.2,13.8-12L23.3,18C23.3,18,23.3,18,23.3,18z"/>
	<path d="M46.7,2c-7,0-12.9,5.2-13.8,12h4.6c0.9-4.3,4.7-7.5,9.3-7.5c5.2,0,9.5,4.2,9.5,9.5s-4.2,9.5-9.5,9.5
		c-4.6,0-8.4-3.2-9.3-7.5h-4.6c1,6.8,6.8,12,13.8,12c7.7,0,14-6.2,14-14S54.4,2,46.7,2z"/>
</g>
</svg>
