<?xml version="1.0" encoding="utf-8"?>
<!-- Generator: Adobe Illustrator 23.0.1, SVG Export Plug-In . SVG Version: 6.00 Build 0)  -->
<svg version="1.1" id="图层_1" xmlns="http://www.w3.org/2000/svg" xmlns:xlink="http://www.w3.org/1999/xlink" x="0px" y="0px"
	 viewBox="0 0 20 20" style="enable-background:new 0 0 20 20;" xml:space="preserve">
<style type="text/css">
	.st0{fill-rule:evenodd;clip-rule:evenodd;fill:#ECBA6F;}
	.st1{fill:none;}
</style>
<title>ic_copy</title>
<desc>Created with Sketch.</desc>
<g id="Shape" transform="translate(1.000000, 1.000000)">
	<path id="Combined-Shape" class="st0" d="M1,0h10c0.6,0,1,0.4,1,1v10c0,0.6-0.4,1-1,1H1c-0.6,0-1-0.4-1-1V1C0,0.4,0.4,0,1,0z
		 M1.5,1C1.2,1,1,1.2,1,1.5v9C1,10.8,1.2,11,1.5,11h9c0.3,0,0.5-0.2,0.5-0.5v-9C11,1.2,10.8,1,10.5,1H1.5z"/>
	<path class="st0" d="M13,5h3c0.6,0,1,0.4,1,1v10c0,0.6-0.4,1-1,1H6c-0.6,0-1-0.4-1-1v-3h1v2.5C6,15.8,6.2,16,6.5,16h9
		c0.3,0,0.5-0.2,0.5-0.5v-9C16,6.2,15.8,6,15.5,6H13V5z"/>
</g>
<rect id="Overlay" y="0" class="st1" width="20" height="20"/>
</svg>
