<?xml version="1.0" encoding="utf-8"?>
<!-- Generator: Adobe Illustrator 23.0.1, SVG Export Plug-In . SVG Version: 6.00 Build 0)  -->
<svg version="1.1" id="图层_1" xmlns="http://www.w3.org/2000/svg" xmlns:xlink="http://www.w3.org/1999/xlink" x="0px" y="0px"
	 viewBox="0 0 20 20" style="enable-background:new 0 0 20 20;" xml:space="preserve">
<style type="text/css">
	.st0{fill:none;}
	.st1{fill-rule:evenodd;clip-rule:evenodd;fill:#AEAEAE;}
</style>
<title>ic_close</title>
<desc>Created with Sketch.</desc>
<polygon id="Gudie" class="st0" points="0,0 20,0 20,20 0,20 "/>
<path id="Fill-1" class="st1" d="M10.8,10l6.1-6.1c0.2-0.2,0.2-0.6,0-0.8c-0.2-0.2-0.6-0.2-0.8,0L10,9.2L3.9,3.2
	c-0.2-0.2-0.6-0.2-0.8,0c-0.2,0.2-0.2,0.6,0,0.8L9.2,10l-6.1,6.1c-0.2,0.2-0.2,0.6,0,0.8C3.3,16.9,3.4,17,3.5,17
	c0.1,0,0.3-0.1,0.4-0.2l6.1-6.1l6.1,6.1c0.1,0.1,0.2,0.2,0.4,0.2c0.1,0,0.3-0.1,0.4-0.2c0.2-0.2,0.2-0.6,0-0.8L10.8,10z"/>
</svg>
