<?xml version="1.0" encoding="utf-8"?>
<!-- Generator: Adobe Illustrator 23.0.1, SVG Export Plug-In . SVG Version: 6.00 Build 0)  -->
<svg version="1.1" id="图层_1" xmlns="http://www.w3.org/2000/svg" xmlns:xlink="http://www.w3.org/1999/xlink" x="0px" y="0px"
	 viewBox="0 0 64 64" style="enable-background:new 0 0 64 64;" xml:space="preserve">
<style type="text/css">
	.st0{fill-rule:evenodd;clip-rule:evenodd;fill:#59D877;}
	.st1{fill-rule:evenodd;clip-rule:evenodd;fill:#FFFFFF;}
	.st2{fill:none;}
</style>
<title>ic_leasing_big</title>
<desc>Created with Sketch.</desc>
<circle id="Oval-2" class="st0" cx="32" cy="32" r="32"/>
<g id="shape" transform="translate(18.000000, 16.000000)">
	<path id="Fill-1" class="st1" d="M2,10v4c0,6.6,5.4,12,12,12s12-5.4,12-12v-4H2z M14,28C6.3,28,0,21.7,0,14V9c0-0.6,0.4-1,1-1h26
		c0.6,0,1,0.4,1,1v5C28,21.7,21.7,28,14,28z"/>
	<path id="Rectangle-8" class="st1" d="M7,0L7,0c0.6,0,1,0.4,1,1v7H6V1C6,0.4,6.4,0,7,0z"/>
	<path class="st1" d="M21,0L21,0c0.6,0,1,0.4,1,1v7h-2V1C20,0.4,20.4,0,21,0z"/>
	<path class="st1" d="M13,28h2v11c0,0.6-0.4,1-1,1l0,0c-0.6,0-1-0.4-1-1V28z"/>
</g>
<rect id="Overlay" y="0" class="st2" width="64" height="64"/>
</svg>
