<?xml version="1.0" encoding="utf-8"?>
<!-- Generator: Adobe Illustrator 23.0.1, SVG Export Plug-In . SVG Version: 6.00 Build 0)  -->
<svg version="1.1" id="图层_1" xmlns="http://www.w3.org/2000/svg" xmlns:xlink="http://www.w3.org/1999/xlink" x="0px" y="0px"
	 viewBox="0 0 20 20" style="enable-background:new 0 0 20 20;" xml:space="preserve">
<style type="text/css">
	.st0{fill-rule:evenodd;clip-rule:evenodd;fill:#666666;}
	.st1{fill:none;}
</style>
<title>ic_qr_code_line</title>
<desc>Created with Sketch.</desc>
<path id="Combined-Shape" class="st0" d="M1,9h8V1H1V9z M2,8V2h6v6H2z M11,9V1h8v8H11z M12,8h6V2h-6V8z M1,19v-8h8v8H1z M2,18h6v-6
	H2V18z M15,11h4v5h-1v-4h-2v2h-5v-3h1v2h3V11z M11,16h1v2h7v1h-8V16z M14,6V4h2v2H14z M4,16v-2h2v2H4z M4,6h2V4H4V6z"/>
<rect id="Overlay" y="0" class="st1" width="20" height="20"/>
</svg>
