<?xml version="1.0" encoding="utf-8"?>
<!-- Generator: Adobe Illustrator 23.0.1, SVG Export Plug-In . SVG Version: 6.00 Build 0)  -->
<svg version="1.1" id="图层_1" xmlns="http://www.w3.org/2000/svg" xmlns:xlink="http://www.w3.org/1999/xlink" x="0px" y="0px"
	 viewBox="0 0 80 80" style="enable-background:new 0 0 80 80;" xml:space="preserve">
<style type="text/css">
	.st0{fill-rule:evenodd;clip-rule:evenodd;fill:#F2F2F2;}
</style>
<title>ic_qr_code</title>
<desc>Created with Sketch.</desc>
<path id="Combined-Shape" class="st0" d="M4,36h32V4H4V36z M8,32V8h24v24H8z M44,36V4h32v32H44z M48,32h24V8H48V32z M4,76V44h32v32
	H4z M8,72h24V48H8V72z M60,44h16v20h-4V48h-8v8H44V44h4v8h12V44z M44,64h4v8h28v4H44V64z M56,24v-8h8v8H56z M16,64v-8h8v8H16z
	 M16,24h8v-8h-8V24z"/>
</svg>
