<?xml version="1.0" encoding="utf-8"?>
<!-- Generator: Adobe Illustrator 23.0.1, SVG Export Plug-In . SVG Version: 6.00 Build 0)  -->
<svg version="1.1" id="图层_1" xmlns="http://www.w3.org/2000/svg" xmlns:xlink="http://www.w3.org/1999/xlink" x="0px" y="0px"
	 viewBox="0 0 64 64" style="enable-background:new 0 0 64 64;" xml:space="preserve">
<style type="text/css">
	.st0{fill-rule:evenodd;clip-rule:evenodd;fill:#FF676B;}
	.st1{fill-rule:evenodd;clip-rule:evenodd;fill:#FFFFFF;}
	.st2{fill:none;}
</style>
<title>ic_sent_big</title>
<desc>Created with Sketch.</desc>
<circle id="Oval-2" class="st0" cx="32" cy="32" r="32"/>
<g id="shape" transform="translate(20.000000, 18.000000)">
	<path id="Fill-1" class="st1" d="M23.7,11.3l-11-11c-0.4-0.4-1-0.4-1.4,0l-11,11c-0.4,0.4-0.4,1,0,1.4c0.4,0.4,1,0.4,1.4,0L11,3.4
		V27c0,0.6,0.4,1,1,1c0.6,0,1-0.4,1-1V3.4l9.3,9.3c0.2,0.2,0.5,0.3,0.7,0.3c0.3,0,0.5-0.1,0.7-0.3C24.1,12.3,24.1,11.7,23.7,11.3"/>
</g>
<rect id="Overlay" y="0" class="st2" width="64" height="64"/>
</svg>
