<?xml version="1.0" encoding="utf-8"?>
<!-- Generator: Adobe Illustrator 23.0.1, SVG Export Plug-In . SVG Version: 6.00 Build 0)  -->
<svg version="1.1" id="图层_1" xmlns="http://www.w3.org/2000/svg" xmlns:xlink="http://www.w3.org/1999/xlink" x="0px" y="0px"
	 viewBox="0 0 32 32" style="enable-background:new 0 0 32 32;" xml:space="preserve">
<style type="text/css">
	.st0{fill-rule:evenodd;clip-rule:evenodd;fill:#ECBA6F;}
</style>
<title>ic_token2</title>
<desc>Created with Sketch.</desc>
<g transform="translate(319.000000, 106.000000)">
	<path class="st0" d="M-303-74c-8.8,0-16-7.2-16-16s7.2-16,16-16s16,7.2,16,16S-294.2-74-303-74z M-303-96.8l6.8,6.8l-6.8,6.8
		l-6.8-6.8L-303-96.8z M-302.6-97.9c-0.2-0.2-0.5-0.2-0.7,0l-7.5,7.5c-0.2,0.2-0.2,0.5,0,0.7l7.5,7.5c0.2,0.2,0.5,0.2,0.7,0l7.5-7.5
		c0.2-0.2,0.2-0.5,0-0.7L-302.6-97.9z"/>
</g>
</svg>
