<?xml version="1.0" encoding="utf-8"?>
<!-- Generator: Adobe Illustrator 23.0.1, SVG Export Plug-In . SVG Version: 6.00 Build 0)  -->
<svg version="1.1" id="图层_1" xmlns="http://www.w3.org/2000/svg" xmlns:xlink="http://www.w3.org/1999/xlink" x="0px" y="0px"
	 viewBox="0 0 337 394" style="enable-background:new 0 0 337 394;" xml:space="preserve">
<style type="text/css">
	.st0{fill-rule:evenodd;clip-rule:evenodd;fill:url(#Path-3_1_);fill-opacity:0.6;}
	.st1{filter:url(#filter-3);}
	.st2{fill-rule:evenodd;clip-rule:evenodd;}
	.st3{fill-rule:evenodd;clip-rule:evenodd;fill:#FFFFFF;}
	.st4{opacity:0.2;fill-rule:evenodd;clip-rule:evenodd;fill:url(#Path_1_);enable-background:new    ;}
	.st5{fill-rule:evenodd;clip-rule:evenodd;fill:url(#SVGID_1_);}
	.st6{fill-rule:evenodd;clip-rule:evenodd;fill:url(#Oval-3_1_);fill-opacity:0.6;}
	.st7{fill-rule:evenodd;clip-rule:evenodd;fill:#ECBA6F;}
</style>
<filter  filterUnits="objectBoundingBox" height="118.7%" id="filter-3" width="127.2%" x="-9.3%" y="-6.3%">
	<feOffset  dx="4" dy="4" in="SourceAlpha" result="shadowOffsetOuter1"></feOffset>
	<feGaussianBlur  in="shadowOffsetOuter1" result="shadowBlurOuter1" stdDeviation="3.5"></feGaussianBlur>
	<feColorMatrix  in="shadowBlurOuter1" type="matrix" values="0 0 0 0 0   0 0 0 0 0   0 0 0 0 0  0 0 0 0.170006793 0">
		</feColorMatrix>
</filter>
<title>img_warning</title>
<desc>Created with Sketch.</desc>
<linearGradient id="Path-3_1_" gradientUnits="userSpaceOnUse" x1="30.0135" y1="65.6672" x2="229.278" y2="161.4147">
	<stop  offset="0" style="stop-color:#F2E9DD"/>
	<stop  offset="1" style="stop-color:#FFFFFF;stop-opacity:0"/>
</linearGradient>
<polygon id="Path-3" class="st0" points="9.9,136.7 92.4,5.9 231,93.4 231,204 141.7,209 "/>
<g class="st1">
	<path id="path-2_1_" class="st2" d="M13,3h71.9c5.5,0,10,4.5,10,10v114c0,5.5-4.5,10-10,10H13c-5.5,0-10-4.5-10-10V13
		C3,7.5,7.5,3,13,3z"/>
</g>
<g>
	<path class="st2" d="M13,3h71.9c5.5,0,10,4.5,10,10v114c0,5.5-4.5,10-10,10H13c-5.5,0-10-4.5-10-10V13C3,7.5,7.5,3,13,3z"/>
</g>
<path id="Combined-Shape" class="st3" d="M72.3,51.7c4.1,5.2,6.3,11.6,6.3,18.3s-2.2,13.1-6.3,18.3v6.2c0,3-2.5,5.5-5.5,5.5H31.7
	c-3,0-5.5-2.5-5.5-5.5v-5.1C21.6,84,19,77.2,19,70s2.6-14.1,7.2-19.4v-5.1c0-3,2.5-5.5,5.5-5.5h35.1c3,0,5.5,2.5,5.5,5.5V51.7z"/>
<path id="Rectangle-3" class="st2" d="M41.3,58.8L41.3,58.8c1.7,0,3.2,1.4,3.2,3.2v16.2c0,1.7-1.4,3.2-3.2,3.2l0,0
	c-1.7,0-3.2-1.4-3.2-3.2V61.9C38.1,60.2,39.5,58.8,41.3,58.8z"/>
<path id="Rectangle-3-Copy" class="st2" d="M56.6,58.8L56.6,58.8c1.7,0,3.2,1.4,3.2,3.2v16.2c0,1.7-1.4,3.2-3.2,3.2l0,0
	c-1.7,0-3.2-1.4-3.2-3.2V61.9C53.4,60.2,54.8,58.8,56.6,58.8z"/>
<linearGradient id="Path_1_" gradientUnits="userSpaceOnUse" x1="248.6817" y1="106.4307" x2="298.182" y2="364.7964">
	<stop  offset="0" style="stop-color:#E2D5C3"/>
	<stop  offset="0.82" style="stop-color:#E2D5C3"/>
	<stop  offset="1" style="stop-color:#E2D5C3;stop-opacity:0"/>
</linearGradient>
<path id="Path" class="st4" d="M291.4,386.8c-16.7-8.9-27.2-15.4-36.7-23c-14-11.3-22.7-23.3-26.1-37.2c-3.1-12.8-0.6-24.7,7.4-36.9
	c6.8-10.4,17-20.6,33.1-34c3-2.5,6.1-5,10.2-8.3c1.4-1.1,8.5-6.8,10.5-8.4c13.3-10.7,21.9-18,29.9-25.8
	c20.8-20.2,21.9-41.1,5.5-58.3c-13.8-14.5-39.4-25.5-68.1-30.1c-35.1-5.6-60.5-20.5-80.1-36.7l-5.1,6.2
	c20.8,17.2,47.5,32.7,83.9,38.5c27.2,4.3,51.2,14.6,63.6,27.7c13.3,14,12.4,29.8-5.3,47.1c-7.8,7.6-16.2,14.8-29.4,25.3
	c-2,1.6-9.1,7.3-10.5,8.4c-4.1,3.3-7.3,5.9-10.3,8.4c-16.7,13.8-27.4,24.5-34.7,35.8c-9.1,14-12.2,28.1-8.5,43.2
	c3.9,15.9,13.6,29.3,28.9,41.6c10.2,8.2,21.2,15,39,24.4"/>
<linearGradient id="SVGID_1_" gradientUnits="userSpaceOnUse" x1="-127.6531" y1="617.0517" x2="-127.923" y2="616.3665" gradientTransform="matrix(166.5759 0 0 -312.095 21522.291 192696.3125)">
	<stop  offset="7.853836e-04" style="stop-color:#FFEEAC"/>
	<stop  offset="0.6938" style="stop-color:#FFEEAC"/>
	<stop  offset="1" style="stop-color:#FFEEAC;stop-opacity:0"/>
</linearGradient>
<path class="st5" d="M304.1,385c-1.9-1-9.1-4.7-10.8-5.6c-22.1-11.5-34.5-18.8-45.6-27.7c-14-11.3-22.7-23.3-26.1-37.2
	c-3.1-12.8-0.6-24.7,7.4-36.9c6.8-10.4,17-20.6,33.1-34c3-2.5,6.1-5,10.2-8.3c1.4-1.1,8.5-6.8,10.5-8.4c13.3-10.7,21.9-18,29.9-25.8
	c20.8-20.2,21.9-41.1,5.5-58.3c-13.8-14.5-39.4-25.5-68.1-30.1c-35.1-5.6-62.5-16.5-82.1-32.7l-5.1,6.2
	c20.8,17.2,49.5,28.7,85.9,34.5c27.2,4.3,51.2,14.6,63.6,27.7c13.3,14,12.4,29.8-5.3,47.1c-7.8,7.6-16.2,14.8-29.4,25.3
	c-2,1.6-9.1,7.3-10.5,8.4c-4.1,3.3-7.3,5.9-10.3,8.4c-16.7,13.8-27.4,24.5-34.7,35.8c-9.1,14-12.2,28.1-8.5,43.2
	c3.9,15.9,13.6,29.3,28.9,41.6c11.6,9.4,24.4,16.9,47,28.6c1.7,0.9,8.9,4.6,10.8,5.6"/>
<linearGradient id="Oval-3_1_" gradientUnits="userSpaceOnUse" x1="114.23" y1="106.5" x2="164.23" y2="106.5">
	<stop  offset="0" style="stop-color:#DBD2C6;stop-opacity:0"/>
	<stop  offset="0.9996" style="stop-color:#CEC3B6"/>
</linearGradient>
<ellipse id="Oval-3" class="st6" cx="139.2" cy="106.5" rx="25" ry="4.5"/>
<path id="Fill-1" class="st3" d="M164.6,73.5l5.2,2.3c0.9,2.9,1.1,5.5,0.8,7.9c-0.4,2.4-1.4,4.7-3.1,6.9l-5.3,1
	c-4.8,8.6-14.3,13.8-24.2,12.2c-3.5-0.6-8.2-1.3-14-2.2l7-48.6c6.1,1,11,1.7,14.7,2.3C155.1,56.9,162.4,64.3,164.6,73.5"/>
<path id="Fill-4" class="st7" d="M123.6,101.5c5.7,0.9,12.1-9.2,14.2-22.6c2.1-13.4-0.8-24.9-6.5-25.8c-5.7-0.9-12.1,9.2-14.2,22.6
	C115,89,117.9,100.6,123.6,101.5"/>
<path id="Fill-6" class="st3" d="M107.6,62.5l20.7,3.3c1.9,0.3,3.2,2.1,2.9,4c-0.3,1.9-2.1,3.2-4,2.9l-20.7-3.3
	c-1.9-0.3-3.2-2.1-2.9-4C103.8,63.5,105.6,62.2,107.6,62.5"/>
<path id="Fill-8" class="st3" d="M105,78.3l20.7,3.3c1.9,0.3,3.2,2.1,2.9,4c-0.3,1.9-2.1,3.2-4,2.9L104,85.2c-1.9-0.3-3.2-2.1-2.9-4
	C101.3,79.3,103.1,78,105,78.3"/>
</svg>
