<?xml version="1.0" encoding="utf-8"?>
<!-- Generator: Adobe Illustrator 23.0.1, SVG Export Plug-In . SVG Version: 6.00 Build 0)  -->
<svg version="1.1" id="图层_1" xmlns="http://www.w3.org/2000/svg" xmlns:xlink="http://www.w3.org/1999/xlink" x="0px" y="0px"
	 viewBox="0 0 12 12" style="enable-background:new 0 0 12 12;" xml:space="preserve">
<style type="text/css">
	.st0{fill-rule:evenodd;clip-rule:evenodd;fill:#ECBA6F;}
</style>
<title>ico_refresh</title>
<desc>Created with Sketch.</desc>
<path id="Combined-Shape" class="st0" d="M11.5,5.5C11.8,5.5,12,5.7,12,6c0,3.3-2.7,6-6,6c-1.6,0-3.2-0.7-4.3-1.9v0.7
	c0,0.3-0.2,0.5-0.5,0.5s-0.5-0.2-0.5-0.5V8.8c0-0.3,0.2-0.5,0.5-0.5h2.1c0.3,0,0.5,0.2,0.5,0.5c0,0.3-0.2,0.5-0.5,0.5H2.2
	C3.1,10.4,4.5,11,6,11c2.8,0,5-2.3,5-5C11,5.7,11.2,5.5,11.5,5.5z M1,6c0,0.3-0.2,0.5-0.5,0.5S0,6.3,0,6c0-3.3,2.7-6,6-6
	c1.6,0,3.2,0.7,4.3,1.9V1.2c0-0.3,0.2-0.5,0.5-0.5c0.3,0,0.5,0.2,0.5,0.5v2.1c0,0.3-0.2,0.5-0.5,0.5H8.8c-0.3,0-0.5-0.2-0.5-0.5
	c0-0.3,0.2-0.5,0.5-0.5h1.1C8.9,1.6,7.5,1,6,1C3.2,1,1,3.2,1,6z"/>
</svg>
